<svg width="500" height="400" xmlns="http://www.w3.org/2000/svg" version="1.1"><g transform="translate(50,0)"><text x="-50" y="-7" style="font-size: 10px; font-family: Arial, Helvetica;">null</text><g class="y axis" transform="translate(0,0)" style="font-size: 10px; font-family: Arial, Helvetica;"><g class="tick" transform="translate(0,350)" style="opacity: 1;"><line x2="-6" y2="0" style="shape-rendering: crispEdges; fill: none; stroke: rgb(204, 204, 204);"></line><text dy=".32em" x="-9" y="0" style="text-anchor: end;">0</text></g><g class="tick" transform="translate(0,328.125)" style="opacity: 1;"><line x2="-6" y2="0" style="shape-rendering: crispEdges; fill: none; stroke: rgb(204, 204, 204);"></line><text dy=".32em" x="-9" y="0" style="text-anchor: end;">2</text></g><g class="tick" transform="translate(0,306.25)" style="opacity: 1;"><line x2="-6" y2="0" style="shape-rendering: crispEdges; fill: none; stroke: rgb(204, 204, 204);"></line><text dy=".32em" x="-9" y="0" style="text-anchor: end;">4</text></g><g class="tick" transform="translate(0,284.375)" style="opacity: 1;"><line x2="-6" y2="0" style="shape-rendering: crispEdges; fill: none; stroke: rgb(204, 204, 204);"></line><text dy=".32em" x="-9" y="0" style="text-anchor: end;">6</text></g><g class="tick" transform="translate(0,262.5)" style="opacity: 1;"><line x2="-6" y2="0" style="shape-rendering: crispEdges; fill: none; stroke: rgb(204, 204, 204);"></line><text dy=".32em" x="-9" y="0" style="text-anchor: end;">8</text></g><g class="tick" transform="translate(0,240.625)" style="opacity: 1;"><line x2="-6" y2="0" style="shape-rendering: crispEdges; fill: none; stroke: rgb(204, 204, 204);"></line><text dy=".32em" x="-9" y="0" style="text-anchor: end;">10</text></g><g class="tick" transform="translate(0,218.75)" style="opacity: 1;"><line x2="-6" y2="0" style="shape-rendering: crispEdges; fill: none; stroke: rgb(204, 204, 204);"></line><text dy=".32em" x="-9" y="0" style="text-anchor: end;">12</text></g><g class="tick" transform="translate(0,196.875)" style="opacity: 1;"><line x2="-6" y2="0" style="shape-rendering: crispEdges; fill: none; stroke: rgb(204, 204, 204);"></line><text dy=".32em" x="-9" y="0" style="text-anchor: end;">14</text></g><g class="tick" transform="translate(0,175)" style="opacity: 1;"><line x2="-6" y2="0" style="shape-rendering: crispEdges; fill: none; stroke: rgb(204, 204, 204);"></line><text dy=".32em" x="-9" y="0" style="text-anchor: end;">16</text></g><g class="tick" transform="translate(0,153.125)" style="opacity: 1;"><line x2="-6" y2="0" style="shape-rendering: crispEdges; fill: none; stroke: rgb(204, 204, 204);"></line><text dy=".32em" x="-9" y="0" style="text-anchor: end;">18</text></g><g class="tick" transform="translate(0,131.25)" style="opacity: 1;"><line x2="-6" y2="0" style="shape-rendering: crispEdges; fill: none; stroke: rgb(204, 204, 204);"></line><text dy=".32em" x="-9" y="0" style="text-anchor: end;">20</text></g><g class="tick" transform="translate(0,109.375)" style="opacity: 1;"><line x2="-6" y2="0" style="shape-rendering: crispEdges; fill: none; stroke: rgb(204, 204, 204);"></line><text dy=".32em" x="-9" y="0" style="text-anchor: end;">22</text></g><g class="tick" transform="translate(0,87.5)" style="opacity: 1;"><line x2="-6" y2="0" style="shape-rendering: crispEdges; fill: none; stroke: rgb(204, 204, 204);"></line><text dy=".32em" x="-9" y="0" style="text-anchor: end;">24</text></g><g class="tick" transform="translate(0,65.625)" style="opacity: 1;"><line x2="-6" y2="0" style="shape-rendering: crispEdges; fill: none; stroke: rgb(204, 204, 204);"></line><text dy=".32em" x="-9" y="0" style="text-anchor: end;">26</text></g><g class="tick" transform="translate(0,43.75)" style="opacity: 1;"><line x2="-6" y2="0" style="shape-rendering: crispEdges; fill: none; stroke: rgb(204, 204, 204);"></line><text dy=".32em" x="-9" y="0" style="text-anchor: end;">28</text></g><g class="tick" transform="translate(0,21.875)" style="opacity: 1;"><line x2="-6" y2="0" style="shape-rendering: crispEdges; fill: none; stroke: rgb(204, 204, 204);"></line><text dy=".32em" x="-9" y="0" style="text-anchor: end;">30</text></g><g class="tick" transform="translate(0,0)" style="opacity: 1;"><line x2="-6" y2="0" style="shape-rendering: crispEdges; fill: none; stroke: rgb(204, 204, 204);"></line><text dy=".32em" x="-9" y="0" style="text-anchor: end;">32</text></g><path class="domain" d="M-6,0H0V350H-6" style="shape-rendering: crispEdges; fill: none; stroke: rgb(204, 204, 204);"></path></g><rect transform="translate(0,0)" class="bar" x="2" width="82" y="87.5" height="262.5" style="fill: rgb(191, 105, 105);"></rect><rect transform="translate(0,0)" class="bar" x="93" width="82" y="98.4375" height="251.5625" style="fill: rgb(174, 191, 105);"></rect><rect transform="translate(0,0)" class="bar" x="184" width="82" y="164.0625" height="185.9375" style="fill: rgb(105, 191, 139);"></rect><rect transform="translate(0,0)" class="bar" x="275" width="82" y="0" height="350" style="fill: rgb(105, 139, 191);"></rect><rect transform="translate(0,0)" class="bar" x="366" width="82" y="295.3125" height="54.6875" style="fill: rgb(174, 105, 191);"></rect></g><g class="x axis" transform="translate(50,350)" style="font-size: 10px; font-family: Arial, Helvetica;"><g class="tick" transform="translate(43,0)" style="opacity: 1;"><line y2="6" x2="0" style="shape-rendering: crispEdges; fill: none; stroke: rgb(204, 204, 204);"></line><text dy=".71em" y="9" x="0" style="text-anchor: middle;">Woodwinds</text></g><g class="tick" transform="translate(134,0)" style="opacity: 1;"><line y2="6" x2="0" style="shape-rendering: crispEdges; fill: none; stroke: rgb(204, 204, 204);"></line><text dy=".71em" y="9" x="0" style="text-anchor: middle;">Strings</text></g><g class="tick" transform="translate(225,0)" style="opacity: 1;"><line y2="6" x2="0" style="shape-rendering: crispEdges; fill: none; stroke: rgb(204, 204, 204);"></line><text dy=".71em" y="9" x="0" style="text-anchor: middle;">Brass</text></g><g class="tick" transform="translate(316,0)" style="opacity: 1;"><line y2="6" x2="0" style="shape-rendering: crispEdges; fill: none; stroke: rgb(204, 204, 204);"></line><text dy=".71em" y="9" x="0" style="text-anchor: middle;">Percussion</text></g><g class="tick" transform="translate(407,0)" style="opacity: 1;"><line y2="6" x2="0" style="shape-rendering: crispEdges; fill: none; stroke: rgb(204, 204, 204);"></line><text dy=".71em" y="9" x="0" style="text-anchor: middle;">Keyboards</text></g><path class="domain" d="M0,6V0H450V6" style="shape-rendering: crispEdges; fill: none; stroke: rgb(204, 204, 204);"></path></g></svg>