<?xml version="1.0" encoding="utf-8"?>
<!-- Generator: Adobe Illustrator 19.2.0, SVG Export Plug-In . SVG Version: 6.00 Build 0)  -->
<svg version="1.1" id="Capa_1" xmlns="http://www.w3.org/2000/svg" xmlns:xlink="http://www.w3.org/1999/xlink" x="0px" y="0px"
	 viewBox="0 0 1500 1500" style="enable-background:new 0 0 1500 1500;" xml:space="preserve">
<style type="text/css">
	.st0{fill:none;stroke:#D88282;stroke-width:5;}
	.st1{fill:none;stroke:#D88282;stroke-width:2;}
	.st2{fill:none;stroke:#D88282;stroke-width:0.5;}
	.st3{fill:none;stroke:#CCCCCC;}
	.st4{fill:#EEEEEE;stroke:#999999;}
	.st5{font-family:'GillSansMTPro-LightItalic';}
	.st6{font-size:19.8425px;}
	.st7{font-family:'GillSansMTPro-Light';}
	.st8{font-size:11.3386px;}
	.st9{font-family:'ArialMT';}
	.st10{font-size:11px;}
</style>
<path class="st0" d="M750,750c44.7,95,50.5-92.1,101-184.1"/>
<path class="st0" d="M750,750c44.7,95,104.6,9.7,209.1,19.4"/>
<path class="st0" d="M750,750c44.7,95-3.9,104.9-7.8,209.9"/>
<path class="st0" d="M750,750c44.7,95-76.7-71.8-153.3-143.5"/>
<path class="st1" d="M851,565.9c50.5-92.1-59.5-128.1-45.7-232.2"/>
<path class="st1" d="M851,565.9c50.5-92.1,28.2-103.2,71.2-199"/>
<path class="st1" d="M851,565.9c50.5-92.1,92.2-64.7,156.5-147.7"/>
<path class="st1" d="M851,565.9c50.5-92.1,123.2-37.1,198-110.9"/>
<path class="st2" d="M805.3,333.7c13.8-104.1-27.6-107.9-22-212.8"/>
<path class="st2" d="M805.3,333.7c13.8-104.1,0.1-105.7,11.1-210.1"/>
<path class="st2" d="M805.3,333.7c13.8-104.1,27.5-102.1,44.1-205.8"/>
<path class="st2" d="M805.3,333.7c13.8-104.1,54.8-97,76.8-199.7"/>
<path class="st2" d="M922.2,366.9c43-95.8-8.6-115.8,24.1-215.6"/>
<path class="st2" d="M922.2,366.9c43-95.8,17.5-106.5,55.4-204.4"/>
<path class="st2" d="M922.2,366.9c43-95.8,43-95.8,86.1-191.5"/>
<path class="st2" d="M922.2,366.9c43-95.8,68-83.7,116.1-177.1"/>
<path class="st2" d="M922.2,366.9c43-95.8,92.3-70.4,145.2-161.1"/>
<path class="st2" d="M1007.5,418.2c64.4-82.9,53.3-91.3,115.5-175.9"/>
<path class="st2" d="M1007.5,418.2c64.4-82.9,75.2-74.3,141.8-155.5"/>
<path class="st2" d="M1048.9,455c74.7-73.8,74.7-73.8,149.5-147.5"/>
<path class="st1" d="M959.1,769.4c104.6,9.7,65.1-174.5,156.5-226.2"/>
<path class="st1" d="M959.1,769.4c104.6,9.7,103.7-56.7,207.9-69.2"/>
<path class="st1" d="M959.1,769.4c104.6,9.7,91.5,74.8,191.7,106.2"/>
<path class="st1" d="M959.1,769.4c104.6,9.7,31.9,183.5,112.2,251.1"/>
<path class="st2" d="M1115.6,543.2c91.4-51.7,44.9-120.5,127-186"/>
<path class="st2" d="M1115.6,543.2c91.4-51.7,61.6-98.4,147-159.5"/>
<path class="st2" d="M1115.6,543.2c91.4-51.7,77.1-75.5,165.6-131.9"/>
<path class="st2" d="M1115.6,543.2c91.4-51.7,91.4-51.7,182.8-103.4"/>
<path class="st2" d="M1115.6,543.2c91.4-51.7,104.4-27.2,198.4-74"/>
<path class="st2" d="M1115.6,543.2c91.4-51.7,116.1-2.1,212.4-43.9"/>
<path class="st2" d="M1115.6,543.2c91.4-51.7,126.4,23.6,224.8-13"/>
<path class="st2" d="M1167,700.2c104.3-12.4,91.5-80.5,193.3-106.6"/>
<path class="st2" d="M1167,700.2c104.3-12.4,97.7-53.5,200.7-74.1"/>
<path class="st3" d="M1167,700.2c104.3-12.4,102.4-26.2,206.3-41.4"/>
<path class="st2" d="M1167,700.2c104.3-12.4,105.7,1.3,210.3-8.4"/>
<path class="st2" d="M1167,700.2c104.3-12.4,107.5,29,212.5,24.8"/>
<path class="st2" d="M1167,700.2c104.3-12.4,107.9,56.7,212.9,58.1"/>
<path class="st2" d="M1150.8,875.6c100.2,31.4,120.5-63.3,224.8-50.9"/>
<path class="st2" d="M1150.8,875.6c100.2,31.4,116.5-35.9,220-18"/>
<path class="st2" d="M1150.8,875.6c100.2,31.4,111-8.7,213.4,14.6"/>
<path class="st2" d="M1150.8,875.6C1251,907,1255,893.7,1356,922.4"/>
<path class="st2" d="M1150.8,875.6c100.2,31.4,95.9,44.6,195.2,78.6"/>
<path class="st2" d="M1150.8,875.6c100.2,31.4,86.2,70.5,183.6,109.8"/>
<path class="st2" d="M1150.8,875.6c100.2,31.4,75.2,96,170.4,140.3"/>
<path class="st2" d="M1150.8,875.6c100.2,31.4,62.8,120.8,155.6,170"/>
<path class="st2" d="M1071.3,1020.4c80.3,67.6,113.7,23.4,200.7,82.2"/>
<path class="st2" d="M1071.3,1020.4c80.3,67.6,97.6,45.9,181.4,109.2"/>
<path class="st2" d="M1071.3,1020.4c80.3,67.6,80.3,67.6,160.7,135.2"/>
<path class="st2" d="M1071.3,1020.4c80.3,67.6,61.9,88.3,138.6,160.1"/>
<path class="st2" d="M1071.3,1020.4c80.3,67.6,42.5,108.1,115.2,183.8"/>
<path class="st1" d="M742.2,959.9c-3.9,104.9,194.3,44,256.4,128.6"/>
<path class="st1" d="M742.2,959.9c-3.9,104.9,129.3,80.8,169.8,177.6"/>
<path class="st1" d="M742.2,959.9c-3.9,104.9,24.4,104.7,29.9,209.6"/>
<path class="st1" d="M742.2,959.9c-3.9,104.9-106,83.9-144,181.8"/>
<path class="st1" d="M742.2,959.9c-3.9,104.9-238.5-13.5-320.6,52"/>
<path class="st2" d="M998.7,1088.5c62.2,84.6,73.2,76.3,137.6,159.2"/>
<path class="st2" d="M998.7,1088.5c62.2,84.6,50.9,92.7,110.8,178.9"/>
<path class="st2" d="M912,1137.5c40.5,96.9,90.4,72.8,140.9,164.9"/>
<path class="st2" d="M912,1137.5c40.5,96.9,65.8,85.5,111.3,180.1"/>
<path class="st2" d="M912,1137.5c40.5,96.9,40.5,96.9,81,193.7"/>
<path class="st2" d="M912,1137.5c40.5,96.9,14.7,106.9,50,205.8"/>
<path class="st2" d="M912,1137.5c40.5,96.9-11.7,115.5,18.4,216.1"/>
<path class="st2" d="M772.2,1169.4c5.5,104.9,74.3,96.6,93.6,199.9"/>
<path class="st2" d="M772.2,1169.4c5.5,104.9,46.9,101,60.8,205.1"/>
<path class="st2" d="M772.2,1169.4c5.5,104.9,19.4,103.9,27.7,208.6"/>
<path class="st2" d="M772.2,1169.4c5.5,104.9-8.3,105.4-5.5,210.4"/>
<path class="st2" d="M772.2,1169.4c5.5,104.9-36,105.4-38.8,210.4"/>
<path class="st2" d="M772.2,1169.4c5.5,104.9-63.7,103.9-72,208.6"/>
<path class="st2" d="M598.3,1141.6c-37.9,97.9,55.3,124.4,36,227.6"/>
<path class="st2" d="M598.3,1141.6c-37.9,97.9,28.2,118.6,3.4,220.7"/>
<path class="st2" d="M598.3,1141.6c-37.9,97.9,1.4,111.4-28.7,212"/>
<path class="st2" d="M598.3,1141.6c-37.9,97.9-24.9,102.7-60.3,201.6"/>
<path class="st2" d="M598.3,1141.6c-37.9,97.9-50.8,92.7-91.3,189.6"/>
<path class="st2" d="M598.3,1141.6c-37.9,97.9-76.1,81.4-121.6,176"/>
<path class="st2" d="M598.3,1141.6c-37.9,97.9-100.7,68.7-151.2,160.8"/>
<path class="st2" d="M598.3,1141.6c-37.9,97.9-124.7,54.7-179.9,144"/>
<path class="st2" d="M421.6,1011.9c-82.1,65.5,6.5,152.9-57.9,235.8"/>
<path class="st2" d="M421.6,1011.9c-82.1,65.5-15,135.3-83.6,214.8"/>
<path class="st2" d="M421.6,1011.9c-82.1,65.5-35.4,116.6-108.2,192.3"/>
<path class="st2" d="M421.6,1011.9c-82.1,65.5-54.9,96.9-131.6,168.7"/>
<path class="st2" d="M421.6,1011.9c-82.1,65.5-73.3,76.2-153.6,143.8"/>
<path class="st2" d="M421.6,1011.9c-82.1,65.5-90.6,54.5-174.4,117.8"/>
<path class="st2" d="M421.6,1011.9c-82.1,65.5-106.7,32-193.7,90.7"/>
<path class="st2" d="M421.6,1011.9c-82.1,65.5-121.6,8.6-211.6,62.7"/>
<path class="st2" d="M421.6,1011.9c-82.1,65.5-135.3-15.5-228,33.7"/>
<path class="st2" d="M421.6,1011.9c-82.1,65.5-147.6-40.3-242.8,4"/>
<path class="st1" d="M596.7,606.5C520,534.7,441.2,812,338.2,832.6"/>
<path class="st1" d="M596.7,606.5c-76.7-71.8-138.9,25.9-236.3-13.4"/>
<path class="st1" d="M596.7,606.5c-76.7-71.8-33.2-110.3-95.3-195"/>
<path class="st1" d="M596.7,606.5c-76.7-71.8,39.5-150.2,1.6-248.1"/>
<path class="st1" d="M596.7,606.5c-76.7-71.8,111.9-168.7,98-272.8"/>
<path class="st2" d="M338.2,832.6c-102.9,20.7-84.9,87.5-184.2,121.5"/>
<path class="st2" d="M338.2,832.6C235.3,853.3,245,893.7,144,922.4"/>
<path class="st2" d="M338.2,832.6c-102.9,20.7-100,34.2-202.4,57.6"/>
<path class="st2" d="M338.2,832.6c-102.9,20.7-105.5,7-209,25"/>
<path class="st2" d="M338.2,832.6c-102.9,20.7-109.5-20.4-213.8-7.9"/>
<path class="st2" d="M338.2,832.6c-102.9,20.7-112.1-48-216.8-41.1"/>
<path class="st2" d="M360.4,593.1c-97.4-39.2-135,136.1-239.9,131.9"/>
<path class="st2" d="M360.4,593.1c-97.4-39.2-133.2,108.4-237.7,98.7"/>
<path class="st2" d="M360.4,593.1C263,553.9,230.5,674,126.6,658.8"/>
<path class="st2" d="M360.4,593.1c-97.4-39.2-125.1,53.6-228.1,33"/>
<path class="st2" d="M360.4,593.1c-97.4-39.2-119,26.6-220.7,0.5"/>
<path class="st2" d="M360.4,593.1C263,553.9,249,593,148.8,561.7"/>
<path class="st2" d="M360.4,593.1C263,553.9,258,566.8,159.6,530.2"/>
<path class="st2" d="M360.4,593.1c-97.4-39.2-92.1-52-188.4-93.8"/>
<path class="st2" d="M360.4,593.1C263,553.9,280,516,186,469.2"/>
<path class="st2" d="M360.4,593.1C263,553.9,293,491.5,201.7,439.8"/>
<path class="st2" d="M360.4,593.1c-97.4-39.2-53.1-125.4-141.6-181.8"/>
<path class="st2" d="M360.4,593.1c-97.4-39.2-37.6-148.3-123-209.4"/>
<path class="st2" d="M360.4,593.1c-97.4-39.2-20.9-170.5-103-235.9"/>
<path class="st2" d="M360.4,593.1c-97.4-39.2-3-191.7-81.5-261.4"/>
<path class="st2" d="M501.3,411.5c-62.2-84.6-105-49.5-175.8-127.1"/>
<path class="st2" d="M501.3,411.5c-62.2-84.6-84.1-67.6-150.6-148.8"/>
<path class="st2" d="M501.3,411.5c-62.2-84.6-62.2-84.6-124.3-169.2"/>
<path class="st2" d="M501.3,411.5c-62.2-84.6-39.4-100.4-97-188.2"/>
<path class="st2" d="M501.3,411.5c-62.2-84.6-15.8-115-68.7-205.7"/>
<path class="st2" d="M598.3,358.4c-37.9-97.9-63.5-87.2-106.5-183"/>
<path class="st2" d="M598.3,358.4c-37.9-97.9-37.9-97.9-75.9-195.8"/>
<path class="st2" d="M598.3,358.4c-37.9-97.9-11.8-107.2-44.5-207"/>
<path class="st2" d="M694.7,333.7c-13.8-104.1-54.8-97-76.8-199.7"/>
<path class="st2" d="M694.7,333.7c-13.8-104.1-27.5-102.1-44.1-205.8"/>
<path class="st2" d="M694.7,333.7c-13.8-104.1-0.1-105.7-11.1-210.1"/>
<path class="st2" d="M694.7,333.7c-13.8-104.1,27.6-107.9,22-212.8"/>
<g transform="rotate(64.81512605042016)translate(0)">
	
		<ellipse transform="matrix(0.9049 -0.4255 0.4255 0.9049 247.8601 390.4509)" class="st4" cx="997.9" cy="-359.5" rx="4.5" ry="4.5"/>
</g>
<g transform="rotate(-61.260504201680675)translate(210.00000000000003)">
	
		<ellipse transform="matrix(0.4808 -0.8768 0.8768 0.4808 -1046.9901 268.2321)" class="st4" cx="-297" cy="1018.2" rx="4.5" ry="4.5"/>
	<text transform="matrix(1 0 0 1 -288.9901 1021.642)" class="st5 st6">Classical orchestra</text>
</g>
<g transform="rotate(-82.43697478991596)translate(420.00000000000006)">
	
		<ellipse transform="matrix(0.1316 -0.9913 0.9913 0.1316 -1394.7625 92.1883)" class="st4" cx="-644.8" cy="842.2" rx="4.5" ry="4.5"/>
	<text transform="matrix(1 0 0 1 -636.7623 845.5978)" class="st7 st8">Woodwinds</text>
</g>
<g transform="rotate(-86.97478991596638)translate(630)">
	
		<ellipse transform="matrix(5.277530e-002 -0.9986 0.9986 5.277530e-002 -1459.374 38.5359)" class="st4" cx="-709.4" cy="788.5" rx="4.5" ry="4.5"/>
	<text transform="matrix(1 0 0 1 -701.3743 791.9465)" class="st9 st10">Flutes</text>
</g>
<g transform="rotate(-83.94957983193277)translate(630)">
	
		<ellipse transform="matrix(0.1054 -0.9944 0.9944 0.1054 -1416.7687 74.8753)" class="st4" cx="-666.8" cy="824.9" rx="4.5" ry="4.5"/>
	<text transform="matrix(1 0 0 1 -658.7687 828.2847)" class="st9 st10">Clarinets</text>
</g>
<g transform="rotate(-80.92436974789916)translate(630)">
	
		<ellipse transform="matrix(0.1577 -0.9875 0.9875 0.1577 -1372.3073 108.9142)" class="st4" cx="-622.3" cy="858.9" rx="4.5" ry="4.5"/>
	<text transform="matrix(1 0 0 1 -614.3071 862.3242)" class="st9 st10">Bassoons</text>
</g>
<g transform="rotate(-77.89915966386555)translate(630)">
	
		<ellipse transform="matrix(0.2096 -0.9778 0.9778 0.2096 -1326.1106 140.56)" class="st4" cx="-576.1" cy="890.6" rx="4.5" ry="4.5"/>
	<text transform="matrix(1 0 0 1 -568.1107 893.9701)" class="st9 st10">Oboes</text>
</g>
<g transform="rotate(-65.7983193277311)translate(420.00000000000006)">
	
		<ellipse transform="matrix(0.4099 -0.9121 0.9121 0.4099 -1126.6187 241.5436)" class="st4" cx="-376.6" cy="991.5" rx="4.5" ry="4.5"/>
	<text transform="matrix(1 0 0 1 -368.6181 994.9533)" class="st7 st8">Strings</text>
</g>
<g transform="rotate(-71.84873949579833)translate(630)">
	
		<ellipse transform="matrix(0.3115 -0.9502 0.9502 0.3115 -1229.0333 196.3236)" class="st4" cx="-479" cy="946.3" rx="4.5" ry="4.5"/>
	<text transform="matrix(1 0 0 1 -471.0331 949.7335)" class="st9 st10">Violins 1</text>
</g>
<g transform="rotate(-68.82352941176471)translate(630)">
	
		<ellipse transform="matrix(0.3612 -0.9325 0.9325 0.3612 -1178.423 220.2859)" class="st4" cx="-428.4" cy="970.3" rx="4.5" ry="4.5"/>
	<text transform="matrix(1 0 0 1 -420.4227 973.6958)" class="st9 st10">Cellos</text>
</g>
<g transform="rotate(-65.7983193277311)translate(630)">
	
		<ellipse transform="matrix(0.4099 -0.9121 0.9121 0.4099 -1126.6187 241.5436)" class="st4" cx="-376.6" cy="991.5" rx="4.5" ry="4.5"/>
	<text transform="matrix(1 0 0 1 -368.6187 994.9537)" class="st9 st10">Violins 2</text>
</g>
<g transform="rotate(-62.773109243697476)translate(630)">
	
		<ellipse transform="matrix(0.4575 -0.8892 0.8892 0.4575 -1073.7649 260.0374)" class="st4" cx="-323.8" cy="1010" rx="4.5" ry="4.5"/>
	<text transform="matrix(1 0 0 1 -315.7654 1013.4476)" class="st9 st10">Double basses</text>
</g>
<g transform="rotate(-59.74789915966386)translate(630)">
	
		<ellipse transform="matrix(0.5038 -0.8638 0.8638 0.5038 -1020.0083 275.7173)" class="st4" cx="-270" cy="1025.7" rx="4.5" ry="4.5"/>
	<text transform="matrix(1 0 0 1 -262.0078 1029.1268)" class="st9 st10">Violas</text>
</g>
<g transform="rotate(-52.18487394957983)translate(420.00000000000006)">
	<ellipse transform="matrix(0.6131 -0.79 0.79 0.6131 -882.658 302.3319)" class="st4" cx="-132.7" cy="1052.3" rx="4.5" ry="4.5"/>
	<text transform="matrix(1 0 0 1 -124.6579 1055.7418)" class="st7 st8">Brass</text>
</g>
<g transform="rotate(-53.69747899159664)translate(630)">
	
		<ellipse transform="matrix(0.592 -0.8059 0.8059 0.592 -910.39 298.4635)" class="st4" cx="-160.4" cy="1048.5" rx="4.5" ry="4.5"/>
	<text transform="matrix(1 0 0 1 -152.3898 1051.8733)" class="st9 st10">French Horns</text>
</g>
<g transform="rotate(-50.67226890756302)translate(630)">
	
		<ellipse transform="matrix(0.6338 -0.7735 0.7735 0.6338 -854.8337 305.4662)" class="st4" cx="-104.8" cy="1055.5" rx="4.5" ry="4.5"/>
	<text transform="matrix(1 0 0 1 -96.8345 1058.8766)" class="st9 st10">Trumpets</text>
</g>
<g transform="rotate(-44.6218487394958)translate(420.00000000000006)">
	<ellipse transform="matrix(0.7118 -0.7024 0.7024 0.7118 -742.9998 310.6366)" class="st4" cx="7" cy="1060.6" rx="4.5" ry="4.5"/>
	<text transform="matrix(1 0 0 1 14.9997 1064.047)" class="st7 st8">Percussion</text>
</g>
<g transform="rotate(-44.6218487394958)translate(630)">
	<ellipse transform="matrix(0.7118 -0.7024 0.7024 0.7118 -742.9998 310.6366)" class="st4" cx="7" cy="1060.6" rx="4.5" ry="4.5"/>
	<text transform="matrix(1 0 0 1 14.9997 1064.0469)" class="st9 st10">Timpani</text>
</g>
<g transform="rotate(5.294117647058826)translate(210.00000000000003)">
	
		<ellipse transform="matrix(9.226836e-002 -0.9957 0.9957 9.226836e-002 66.0014 1427.5997)" class="st4" cx="816" cy="677.6" rx="4.5" ry="4.5"/>
	<text transform="matrix(1 0 0 1 824.0019 681.0098)" class="st5 st6">Early Romantic orchestra</text>
</g>
<g transform="rotate(-29.495798319327726)translate(420.00000000000006)">
	
		<ellipse transform="matrix(0.8704 -0.4924 0.4924 0.8704 -466.4759 272.0635)" class="st4" cx="283.5" cy="1022.1" rx="4.5" ry="4.5"/>
	<text transform="matrix(1 0 0 1 291.5237 1025.4735)" class="st7 st8">Percussion</text>
</g>
<g transform="rotate(-38.57142857142858)translate(630)">
	
		<ellipse transform="matrix(0.7818 -0.6235 0.6235 0.7818 -631.2441 303.9908)" class="st4" cx="118.8" cy="1054" rx="4.5" ry="4.5"/>
	<text transform="matrix(1 0 0 1 126.7558 1057.4015)" class="st9 st10">Cymbals</text>
</g>
<g transform="rotate(-35.54621848739496)translate(630)">
	
		<ellipse transform="matrix(0.8136 -0.5814 0.5814 0.8136 -575.7844 296.2545)" class="st4" cx="174.2" cy="1046.3" rx="4.5" ry="4.5"/>
	<text transform="matrix(1 0 0 1 182.2151 1049.6641)" class="st9 st10">Bass Drum</text>
</g>
<g transform="rotate(-32.52100840336135)translate(630)">
	
		<ellipse transform="matrix(0.8432 -0.5376 0.5376 0.8432 -520.811 285.6023)" class="st4" cx="229.2" cy="1035.6" rx="4.5" ry="4.5"/>
	<text transform="matrix(1 0 0 1 237.1889 1039.0126)" class="st9 st10">Glockenspiel</text>
</g>
<g transform="rotate(-29.495798319327726)translate(630)">
	
		<ellipse transform="matrix(0.8704 -0.4924 0.4924 0.8704 -466.4759 272.0635)" class="st4" cx="283.5" cy="1022.1" rx="4.5" ry="4.5"/>
	<text transform="matrix(1 0 0 1 291.5238 1025.4731)" class="st9 st10">Snare Drum</text>
</g>
<g transform="rotate(-26.470588235294116)translate(630)">
	
		<ellipse transform="matrix(0.8952 -0.4457 0.4457 0.8952 -412.9314 255.6764)" class="st4" cx="337.1" cy="1005.7" rx="4.5" ry="4.5"/>
	<text transform="matrix(1 0 0 1 345.069 1009.0866)" class="st9 st10">Tambourine</text>
</g>
<g transform="rotate(-23.4453781512605)translate(630)">
	
		<ellipse transform="matrix(0.9174 -0.3979 0.3979 0.9174 -360.326 236.4856)" class="st4" cx="389.7" cy="986.5" rx="4.5" ry="4.5"/>
	<text transform="matrix(1 0 0 1 397.6734 989.8957)" class="st9 st10">Triangle</text>
</g>
<g transform="rotate(-20.420168067226882)translate(630)">
	
		<ellipse transform="matrix(0.9372 -0.3489 0.3489 0.9372 -308.8071 214.5459)" class="st4" cx="441.2" cy="964.5" rx="4.5" ry="4.5"/>
	<text transform="matrix(1 0 0 1 449.1929 967.9562)" class="st9 st10">Timpani</text>
</g>
<g transform="rotate(-6.806722689075627)translate(420.00000000000006)">
	<ellipse transform="matrix(0.993 -0.1185 0.1185 0.993 -94.1766 83.6041)" class="st4" cx="655.8" cy="833.6" rx="4.5" ry="4.5"/>
	<text transform="matrix(1 0 0 1 663.8235 837.0134)" class="st7 st8">Strings</text>
</g>
<g transform="rotate(-14.369747899159663)translate(630)">
	
		<ellipse transform="matrix(0.9687 -0.2482 0.2482 0.9687 -209.5981 162.6697)" class="st4" cx="540.4" cy="912.7" rx="4.5" ry="4.5"/>
	<text transform="matrix(1 0 0 1 548.4025 916.0798)" class="st9 st10">Cellos</text>
</g>
<g transform="rotate(-11.344537815126046)translate(630)">
	
		<ellipse transform="matrix(0.9805 -0.1967 0.1967 0.9805 -162.1847 132.8779)" class="st4" cx="587.8" cy="882.9" rx="4.5" ry="4.5"/>
	<text transform="matrix(1 0 0 1 595.8156 886.2877)" class="st9 st10">Double basses</text>
</g>
<g transform="rotate(-8.319327731092443)translate(630)">
	
		<ellipse transform="matrix(0.9895 -0.1447 0.1447 0.9895 -116.4097 100.6253)" class="st4" cx="633.6" cy="850.6" rx="4.5" ry="4.5"/>
	<text transform="matrix(1 0 0 1 641.5903 854.0353)" class="st9 st10">Violins 1</text>
</g>
<g transform="rotate(-5.294117647058826)translate(630)">
	
		<ellipse transform="matrix(0.9957 -9.226836e-002 9.226836e-002 0.9957 -72.4006 66.0019)" class="st4" cx="677.6" cy="816" rx="4.5" ry="4.5"/>
	<text transform="matrix(1 0 0 1 685.5998 819.4119)" class="st9 st10">Violins 2</text>
</g>
<g transform="rotate(-2.268907563025209)translate(630)">
	
		<ellipse transform="matrix(0.9992 -3.958956e-002 3.958956e-002 0.9992 -30.2802 29.1042)" class="st4" cx="719.7" cy="779.1" rx="4.5" ry="4.5"/>
	<text transform="matrix(1 0 0 1 727.7195 782.5145)" class="st9 st10">Violas</text>
</g>
<g transform="rotate(0.7563025210083936)translate(630)">
	
		<ellipse transform="matrix(1.319959e-002 -0.9999 0.9999 1.319959e-002 9.835 1490.0348)" class="st4" cx="759.8" cy="740" rx="4.5" ry="4.5"/>
	<text transform="matrix(1 0 0 1 767.8345 743.4446)" class="st9 st10">Harps</text>
</g>
<g transform="rotate(17.39495798319328)translate(420.00000000000006)">
	
		<ellipse transform="matrix(0.299 -0.9543 0.9543 0.299 189.9176 1241.4818)" class="st4" cx="939.9" cy="491.5" rx="4.5" ry="4.5"/>
	<text transform="matrix(1 0 0 1 947.9172 494.8923)" class="st7 st8">Woodwinds</text>
</g>
<g transform="rotate(6.806722689075627)translate(630)">
	<ellipse transform="matrix(0.1185 -0.993 0.993 0.1185 83.6033 1405.8229)" class="st4" cx="833.6" cy="655.8" rx="4.5" ry="4.5"/>
	<text transform="matrix(1 0 0 1 841.6035 659.2336)" class="st9 st10">English Horn</text>
</g>
<g transform="rotate(9.831932773109244)translate(630)">
	
		<ellipse transform="matrix(0.1708 -0.9853 0.9853 0.1708 117.0541 1360.9154)" class="st4" cx="867.1" cy="610.9" rx="4.5" ry="4.5"/>
	<text transform="matrix(1 0 0 1 875.0536 614.3253)" class="st9 st10">Flutes</text>
</g>
<g transform="rotate(12.857142857142847)translate(630)">
	
		<ellipse transform="matrix(0.2225 -0.9749 0.9749 0.2225 148.0867 1314.3051)" class="st4" cx="898.1" cy="564.3" rx="4.5" ry="4.5"/>
	<text transform="matrix(1 0 0 1 906.0865 567.7152)" class="st9 st10">Bassoons</text>
</g>
<g transform="rotate(15.882352941176478)translate(630)">
	
		<ellipse transform="matrix(0.2737 -0.9618 0.9618 0.2737 176.6163 1266.1216)" class="st4" cx="926.6" cy="516.1" rx="4.5" ry="4.5"/>
	<text transform="matrix(1 0 0 1 934.6161 519.5319)" class="st9 st10">Bass Clarinet</text>
</g>
<g transform="rotate(18.90756302521008)translate(630)">
	<ellipse transform="matrix(0.324 -0.946 0.946 0.324 202.5631 1216.5)" class="st4" cx="952.6" cy="466.5" rx="4.5" ry="4.5"/>
	<text transform="matrix(1 0 0 1 960.563 469.9105)" class="st9 st10">Clarinets</text>
</g>
<g transform="rotate(21.932773109243698)translate(630)">
	
		<ellipse transform="matrix(0.3735 -0.9276 0.9276 0.3735 225.8553 1165.5782)" class="st4" cx="975.9" cy="415.6" rx="4.5" ry="4.5"/>
	<text transform="matrix(1 0 0 1 983.8557 418.9886)" class="st9 st10">Oboes</text>
</g>
<g transform="rotate(24.9579831932773)translate(630)">
	<ellipse transform="matrix(0.422 -0.9066 0.9066 0.422 246.429 1113.498)" class="st4" cx="996.4" cy="363.5" rx="4.5" ry="4.5"/>
	<text transform="matrix(1 0 0 1 1004.4287 366.9074)" class="st9 st10">Piccolo</text>
</g>
<g transform="rotate(27.98319327731093)translate(630)">
	
		<ellipse transform="matrix(0.4692 -0.8831 0.8831 0.4692 264.2239 1060.4044)" class="st4" cx="1014.2" cy="310.4" rx="4.5" ry="4.5"/>
	<text transform="matrix(1 0 0 1 1022.2234 313.8141)" class="st9 st10">Contrabassoon</text>
</g>
<g transform="rotate(40.08403361344537)translate(420.00000000000006)">
	
		<ellipse transform="matrix(0.6439 -0.7651 0.7651 0.6439 306.7581 840.8931)" class="st4" cx="1056.8" cy="90.9" rx="4.5" ry="4.5"/>
	<text transform="matrix(1 0 0 1 1064.7584 94.3036)" class="st7 st8">Brass</text>
</g>
<g transform="rotate(34.03361344537815)translate(630)">
	
		<ellipse transform="matrix(0.5597 -0.8287 0.8287 0.5597 291.2916 951.773)" class="st4" cx="1041.3" cy="201.8" rx="4.5" ry="4.5"/>
	<text transform="matrix(1 0 0 1 1049.2917 205.1828)" class="st9 st10">French Horns</text>
</g>
<g transform="rotate(37.05882352941177)translate(630)">
	
		<ellipse transform="matrix(0.6026 -0.798 0.798 0.6026 300.4893 896.5368)" class="st4" cx="1050.5" cy="146.5" rx="4.5" ry="4.5"/>
	<text transform="matrix(1 0 0 1 1058.489 149.9465)" class="st9 st10">Tubas</text>
</g>
<g transform="rotate(40.08403361344537)translate(630)">
	
		<ellipse transform="matrix(0.6439 -0.7651 0.7651 0.6439 306.7581 840.8931)" class="st4" cx="1056.8" cy="90.9" rx="4.5" ry="4.5"/>
	<text transform="matrix(1 0 0 1 1064.7589 94.3031)" class="st9 st10">Trumpets</text>
</g>
<g transform="rotate(43.109243697479)translate(630)">
	<ellipse transform="matrix(0.6834 -0.7301 0.7301 0.6834 310.0829 784.995)" class="st4" cx="1060.1" cy="35" rx="4.5" ry="4.5"/>
	<text transform="matrix(1 0 0 1 1068.0822 38.4053)" class="st9 st10">Trombones</text>
</g>
<g transform="rotate(46.134453781512605)translate(630)">
	<ellipse transform="matrix(0.721 -0.693 0.693 0.721 310.4526 729.0004)" class="st4" cx="1060.5" cy="-21" rx="4.5" ry="4.5"/>
	<text transform="matrix(1 0 0 1 1068.4523 -17.5899)" class="st9 st10">Cornet</text>
</g>
<g transform="rotate(92.11764705882354)translate(210.00000000000003)">
	
		<ellipse transform="matrix(3.695147e-002 -0.9993 0.9993 3.695147e-002 1471.7743 -27.2007)" class="st4" cx="721.8" cy="-777.2" rx="4.5" ry="4.5"/>
	<text transform="matrix(-1 0 0 -1 849.6091 -780.6111)" class="st5 st6">Late Romantic orchestra</text>
</g>
<g transform="rotate(53.697478991596654)translate(420.00000000000006)">
	
		<ellipse transform="matrix(0.8059 -0.592 0.592 0.8059 298.4629 589.6099)" class="st4" cx="1048.5" cy="-160.4" rx="4.5" ry="4.5"/>
	<text transform="matrix(1 0 0 1 1056.4631 -156.9799)" class="st7 st8">Keyboards</text>
</g>
<g transform="rotate(52.18487394957984)translate(630)">
	<ellipse transform="matrix(0.79 -0.6131 0.6131 0.79 302.3313 617.3419)" class="st4" cx="1052.3" cy="-132.7" rx="4.5" ry="4.5"/>
	<text transform="matrix(1 0 0 1 1060.3317 -129.2478)" class="st9 st10">Celesta</text>
</g>
<g transform="rotate(55.21008403361344)translate(630)">
	
		<ellipse transform="matrix(0.8212 -0.5706 0.5706 0.8212 293.8641 561.9893)" class="st4" cx="1043.9" cy="-188" rx="4.5" ry="4.5"/>
	<text transform="matrix(1 0 0 1 1051.8638 -184.6007)" class="st9 st10">Piano</text>
</g>
<g transform="rotate(67.31092436974791)translate(420.00000000000006)">
	
		<ellipse transform="matrix(0.9226 -0.3857 0.3857 0.9226 231.2564 347.3387)" class="st4" cx="981.3" cy="-402.7" rx="4.5" ry="4.5"/>
	<text transform="matrix(1 0 0 1 989.2561 -399.2517)" class="st7 st8">Brass</text>
</g>
<g transform="rotate(61.260504201680675)translate(630)">
	
		<ellipse transform="matrix(0.8768 -0.4808 0.4808 0.8768 268.2322 453.0098)" class="st4" cx="1018.2" cy="-297" rx="4.5" ry="4.5"/>
	<text transform="matrix(1 0 0 1 1026.2319 -293.58)" class="st9 st10">French Horns</text>
</g>
<g transform="rotate(64.28571428571428)translate(630)">
	
		<ellipse transform="matrix(0.901 -0.4339 0.4339 0.901 251.1393 399.6861)" class="st4" cx="1001.1" cy="-350.3" rx="4.5" ry="4.5"/>
	<text transform="matrix(1 0 0 1 1009.1394 -346.904)" class="st9 st10">Tubas</text>
</g>
<g transform="rotate(67.31092436974791)translate(630)">
	
		<ellipse transform="matrix(0.9226 -0.3857 0.3857 0.9226 231.2564 347.3387)" class="st4" cx="981.3" cy="-402.7" rx="4.5" ry="4.5"/>
	<text transform="matrix(1 0 0 1 989.256 -399.2513)" class="st9 st10">Trumpets</text>
</g>
<g transform="rotate(70.33613445378151)translate(630)">
	
		<ellipse transform="matrix(0.9417 -0.3365 0.3365 0.9417 208.6384 296.1138)" class="st4" cx="958.6" cy="-453.9" rx="4.5" ry="4.5"/>
	<text transform="matrix(1 0 0 1 966.6382 -450.4764)" class="st9 st10">Trombones</text>
</g>
<g transform="rotate(73.36134453781511)translate(630)">
	
		<ellipse transform="matrix(0.9581 -0.2863 0.2863 0.9581 183.3483 246.1539)" class="st4" cx="933.3" cy="-503.8" rx="4.5" ry="4.5"/>
	<text transform="matrix(1 0 0 1 941.3481 -500.4361)" class="st9 st10">Wagner Tuba</text>
</g>
<g transform="rotate(86.97478991596637)translate(420.00000000000006)">
	
		<ellipse transform="matrix(0.9986 -5.277530e-002 5.277530e-002 0.9986 38.5363 40.6267)" class="st4" cx="788.5" cy="-709.4" rx="4.5" ry="4.5"/>
	<text transform="matrix(1 0 0 1 796.5364 -705.9633)" class="st7 st8">Strings</text>
</g>
<g transform="rotate(79.41176470588235)translate(630)">
	<ellipse transform="matrix(0.983 -0.1837 0.1837 0.983 125.042 150.5823)" class="st4" cx="875" cy="-599.4" rx="4.5" ry="4.5"/>
	<text transform="matrix(1 0 0 1 883.0418 -596.008)" class="st9 st10">Violas</text>
</g>
<g transform="rotate(82.43697478991598)translate(630)">
	<ellipse transform="matrix(0.9913 -0.1316 0.1316 0.9913 92.188 105.237)" class="st4" cx="842.2" cy="-644.8" rx="4.5" ry="4.5"/>
	<text transform="matrix(1 0 0 1 850.188 -641.353)" class="st9 st10">Violins 2</text>
</g>
<g transform="rotate(85.46218487394958)translate(630)">
	
		<ellipse transform="matrix(0.9969 -7.911711e-002 7.911711e-002 0.9969 56.9869 61.6889)" class="st4" cx="807" cy="-688.3" rx="4.5" ry="4.5"/>
	<text transform="matrix(1 0 0 1 814.987 -684.9006)" class="st9 st10">Harps</text>
</g>
<g transform="rotate(88.48739495798321)translate(630)">
	
		<ellipse transform="matrix(0.9997 -2.639685e-002 2.639685e-002 0.9997 19.5363 20.059)" class="st4" cx="769.5" cy="-729.9" rx="4.5" ry="4.5"/>
	<text transform="matrix(1 0 0 1 777.5361 -726.5311)" class="st9 st10">Violins 1</text>
</g>
<g transform="rotate(91.51260504201679)translate(630)">
	
		<ellipse transform="matrix(2.639685e-002 -0.9997 0.9997 2.639685e-002 1479.9403 -19.5365)" class="st4" cx="729.9" cy="-769.5" rx="4.5" ry="4.5"/>
	<text transform="matrix(-1 0 0 -1 768.5081 -772.946)" class="st9 st10">Cellos</text>
</g>
<g transform="rotate(94.53781512605042)translate(630)">
	
		<ellipse transform="matrix(7.911711e-002 -0.9969 0.9969 7.911711e-002 1438.3116 -56.9867)" class="st4" cx="688.3" cy="-807" rx="4.5" ry="4.5"/>
	<text transform="matrix(-1 0 0 -1 769.0789 -810.397)" class="st9 st10">Double basses</text>
</g>
<g transform="rotate(111.1764705882353)translate(420.00000000000006)">
	
		<ellipse transform="matrix(0.3612 -0.9325 0.9325 0.3612 1178.423 -220.2859)" class="st4" cx="428.4" cy="-970.3" rx="4.5" ry="4.5"/>
	<text transform="matrix(-1 0 0 -1 493.0821 -973.6956)" class="st7 st8">Woodwinds</text>
</g>
<g transform="rotate(100.58823529411765)translate(630)">
	<ellipse transform="matrix(0.1837 -0.983 0.983 0.1837 1349.418 -125.0413)" class="st4" cx="599.4" cy="-875" rx="4.5" ry="4.5"/>
	<text transform="matrix(-1 0 0 -1 682.0225 -878.4518)" class="st9 st10">Contrabassoon</text>
</g>
<g transform="rotate(103.61344537815125)translate(630)">
	
		<ellipse transform="matrix(0.2354 -0.9719 0.9719 0.2354 1302.4015 -155.4566)" class="st4" cx="552.4" cy="-905.5" rx="4.5" ry="4.5"/>
	<text transform="matrix(-1 0 0 -1 625.8164 -908.8668)" class="st9 st10">Bass Clarinet</text>
</g>
<g transform="rotate(106.63865546218486)translate(630)">
	
		<ellipse transform="matrix(0.2863 -0.9581 0.9581 0.2863 1253.8456 -183.3483)" class="st4" cx="503.8" cy="-933.3" rx="4.5" ry="4.5"/>
	<text transform="matrix(-1 0 0 -1 547.3055 -936.7578)" class="st9 st10">Piccolo</text>
</g>
<g transform="rotate(109.66386554621849)translate(630)">
	
		<ellipse transform="matrix(0.3365 -0.9417 0.9417 0.3365 1203.8864 -208.6378)" class="st4" cx="453.9" cy="-958.6" rx="4.5" ry="4.5"/>
	<text transform="matrix(-1 0 0 -1 524.8624 -962.0481)" class="st9 st10">English Horn</text>
</g>
<g transform="rotate(112.68907563025209)translate(630)">
	
		<ellipse transform="matrix(0.3857 -0.9226 0.9226 0.3857 1152.6609 -231.2559)" class="st4" cx="402.7" cy="-981.3" rx="4.5" ry="4.5"/>
	<text transform="matrix(-1 0 0 -1 443.0701 -984.6658)" class="st9 st10">Oboes</text>
</g>
<g transform="rotate(115.7142857142857)translate(630)">
	
		<ellipse transform="matrix(0.4339 -0.901 0.901 0.4339 1100.3135 -251.1396)" class="st4" cx="350.3" cy="-1001.1" rx="4.5" ry="4.5"/>
	<text transform="matrix(-1 0 0 -1 406.6216 -1004.5494)" class="st9 st10">Bassoons</text>
</g>
<g transform="rotate(118.73949579831935)translate(630)">
	
		<ellipse transform="matrix(0.4808 -0.8768 0.8768 0.4808 1046.9901 -268.2321)" class="st4" cx="297" cy="-1018.2" rx="4.5" ry="4.5"/>
	<text transform="matrix(-1 0 0 -1 334.9447 -1021.6421)" class="st9 st10">Flutes</text>
</g>
<g transform="rotate(121.76470588235296)translate(630)">
	
		<ellipse transform="matrix(0.5264 -0.8502 0.8502 0.5264 992.8389 -282.4869)" class="st4" cx="242.8" cy="-1032.5" rx="4.5" ry="4.5"/>
	<text transform="matrix(-1 0 0 -1 294.2427 -1035.8972)" class="st9 st10">Clarinets</text>
</g>
<g transform="rotate(141.42857142857144)translate(420.00000000000006)">
	
		<ellipse transform="matrix(0.7818 -0.6235 0.6235 0.7818 631.2433 -303.9909)" class="st4" cx="-118.8" cy="-1054" rx="4.5" ry="4.5"/>
	<text transform="matrix(-1 0 0 -1 -56.3419 -1057.4005)" class="st7 st8">Percussion</text>
</g>
<g transform="rotate(127.81512605042016)translate(630)">
	<ellipse transform="matrix(0.6131 -0.79 0.79 0.6131 882.658 -302.3319)" class="st4" cx="132.7" cy="-1052.3" rx="4.5" ry="4.5"/>
	<text transform="matrix(-1 0 0 -1 203.6335 -1055.7415)" class="st9 st10">Glockenspiel</text>
</g>
<g transform="rotate(130.8403361344538)translate(630)">
	
		<ellipse transform="matrix(0.654 -0.7565 0.7565 0.654 826.9364 -307.866)" class="st4" cx="76.9" cy="-1057.9" rx="4.5" ry="4.5"/>
	<text transform="matrix(-1 0 0 -1 139.3352 -1061.2764)" class="st9 st10">Bass Drum</text>
</g>
<g transform="rotate(133.8655462184874)translate(630)">
	<ellipse transform="matrix(0.693 -0.721 0.721 0.693 771.0001 -310.4522)" class="st4" cx="21" cy="-1060.5" rx="4.5" ry="4.5"/>
	<text transform="matrix(-1 0 0 -1 71.7862 -1063.8625)" class="st9 st10">Cymbals</text>
</g>
<g transform="rotate(136.890756302521)translate(630)">
	
		<ellipse transform="matrix(0.7301 -0.6834 0.6834 0.7301 715.0045 -310.0823)" class="st4" cx="-35" cy="-1060.1" rx="4.5" ry="4.5"/>
	<text transform="matrix(-1 0 0 -1 24.9919 -1063.4923)" class="st9 st10">Xylophone</text>
</g>
<g transform="rotate(139.9159663865546)translate(630)">
	
		<ellipse transform="matrix(0.7651 -0.6439 0.6439 0.7651 659.1071 -306.7588)" class="st4" cx="-90.9" cy="-1056.8" rx="4.5" ry="4.5"/>
	<text transform="matrix(-1 0 0 -1 -45.6072 -1060.1685)" class="st9 st10">Chimes</text>
</g>
<g transform="rotate(142.94117647058826)translate(630)">
	
		<ellipse transform="matrix(0.798 -0.6026 0.6026 0.798 603.4631 -300.4886)" class="st4" cx="-146.5" cy="-1050.5" rx="4.5" ry="4.5"/>
	<text transform="matrix(-1 0 0 -1 -79.2397 -1053.8988)" class="st9 st10">Snare Drum</text>
</g>
<g transform="rotate(145.96638655462186)translate(630)">
	
		<ellipse transform="matrix(0.8287 -0.5597 0.5597 0.8287 548.2276 -291.2915)" class="st4" cx="-201.8" cy="-1041.3" rx="4.5" ry="4.5"/>
	<text transform="matrix(-1 0 0 -1 -150.992 -1044.7018)" class="st9 st10">Tam-tam</text>
</g>
<g transform="rotate(148.99159663865547)translate(630)">
	
		<ellipse transform="matrix(0.8571 -0.5152 0.5152 0.8571 493.5539 -279.1916)" class="st4" cx="-256.4" cy="-1029.2" rx="4.5" ry="4.5"/>
	<text transform="matrix(-1 0 0 -1 -190.9697 -1032.6014)" class="st9 st10">Tambourine</text>
</g>
<g transform="rotate(152.0168067226891)translate(630)">
	
		<ellipse transform="matrix(0.8831 -0.4692 0.4692 0.8831 439.5957 -264.2232)" class="st4" cx="-310.4" cy="-1014.2" rx="4.5" ry="4.5"/>
	<text transform="matrix(-1 0 0 -1 -263.0714 -1017.6337)" class="st9 st10">Triangle</text>
</g>
<g transform="rotate(155.0420168067227)translate(630)">
	
		<ellipse transform="matrix(0.9066 -0.422 0.422 0.9066 386.5017 -246.4284)" class="st4" cx="-363.5" cy="-996.4" rx="4.5" ry="4.5"/>
	<text transform="matrix(-1 0 0 -1 -316.7837 -999.838)" class="st9 st10">Timpani</text>
</g>
<g transform="rotate(223.10924369747897)translate(210.00000000000003)">
	
		<ellipse transform="matrix(0.6834 -0.7301 0.7301 0.6834 -310.0829 -784.9951)" class="st4" cx="-1060.1" cy="-35" rx="4.5" ry="4.5"/>
	<text transform="matrix(-1 0 0 -1 -965.8765 -38.4049)" class="st5 st6">Modern orchestra</text>
</g>
<g transform="rotate(168.65546218487395)translate(420.00000000000006)">
	
		<ellipse transform="matrix(0.9805 -0.1967 0.1967 0.9805 162.1848 -132.8779)" class="st4" cx="-587.8" cy="-882.9" rx="4.5" ry="4.5"/>
	<text transform="matrix(-1 0 0 -1 -545.5803 -886.2878)" class="st7 st8">Strings</text>
</g>
<g transform="rotate(161.0924369747899)translate(630)">
	
		<ellipse transform="matrix(0.946 -0.324 0.324 0.946 283.4996 -202.5637)" class="st4" cx="-466.5" cy="-952.6" rx="4.5" ry="4.5"/>
	<text transform="matrix(-1 0 0 -1 -429.1583 -955.9733)" class="st9 st10">Harps</text>
</g>
<g transform="rotate(164.11764705882354)translate(630)">
	
		<ellipse transform="matrix(0.9618 -0.2737 0.2737 0.9618 233.8779 -176.6165)" class="st4" cx="-516.1" cy="-926.6" rx="4.5" ry="4.5"/>
	<text transform="matrix(-1 0 0 -1 -478.3607 -930.0262)" class="st9 st10">Violas</text>
</g>
<g transform="rotate(167.14285714285717)translate(630)">
	
		<ellipse transform="matrix(0.9749 -0.2225 0.2225 0.9749 185.6948 -148.0867)" class="st4" cx="-564.3" cy="-898.1" rx="4.5" ry="4.5"/>
	<text transform="matrix(-1 0 0 -1 -483.5375 -901.4965)" class="st9 st10">Double basses</text>
</g>
<g transform="rotate(170.16806722689074)translate(630)">
	
		<ellipse transform="matrix(0.9853 -0.1708 0.1708 0.9853 139.0844 -117.0537)" class="st4" cx="-610.9" cy="-867.1" rx="4.5" ry="4.5"/>
	<text transform="matrix(-1 0 0 -1 -561.5364 -870.4637)" class="st9 st10">Violins 1</text>
</g>
<g transform="rotate(173.19327731092437)translate(630)">
	<ellipse transform="matrix(0.993 -0.1185 0.1185 0.993 94.1765 -83.604)" class="st4" cx="-655.8" cy="-833.6" rx="4.5" ry="4.5"/>
	<text transform="matrix(-1 0 0 -1 -617.2567 -837.0134)" class="st9 st10">Cellos</text>
</g>
<g transform="rotate(176.218487394958)translate(630)">
	
		<ellipse transform="matrix(0.9978 -6.595188e-002 6.595188e-002 0.9978 51.0968 -47.831)" class="st4" cx="-698.9" cy="-797.8" rx="4.5" ry="4.5"/>
	<text transform="matrix(-1 0 0 -1 -649.524 -801.241)" class="st9 st10">Violins 2</text>
</g>
<g transform="rotate(201.93277310924373)translate(420.00000000000006)">
	
		<ellipse transform="matrix(0.3735 -0.9276 0.9276 0.3735 -225.8554 -1165.5784)" class="st4" cx="-975.9" cy="-415.6" rx="4.5" ry="4.5"/>
	<text transform="matrix(-1 0 0 -1 -913.4412 -418.9887)" class="st7 st8">Percussion</text>
</g>
<g transform="rotate(182.2689075630252)translate(630)">
	
		<ellipse transform="matrix(3.958952e-002 -0.9992 0.9992 3.958952e-002 -29.1049 -1469.7198)" class="st4" cx="-779.1" cy="-719.7" rx="4.5" ry="4.5"/>
	<text transform="matrix(-1 0 0 -1 -732.3896 -723.1295)" class="st9 st10">Timpani</text>
</g>
<g transform="rotate(185.29411764705878)translate(630)">
	
		<ellipse transform="matrix(9.226828e-002 -0.9957 0.9957 9.226828e-002 -66.0015 -1427.5997)" class="st4" cx="-816" cy="-677.6" rx="4.5" ry="4.5"/>
	<text transform="matrix(-1 0 0 -1 -750.5258 -681.0097)" class="st9 st10">Tambourine</text>
</g>
<g transform="rotate(188.31932773109247)translate(630)">
	
		<ellipse transform="matrix(0.1447 -0.9895 0.9895 0.1447 -100.6254 -1383.5905)" class="st4" cx="-850.6" cy="-633.6" rx="4.5" ry="4.5"/>
	<text transform="matrix(-1 0 0 -1 -803.2927 -637.0004)" class="st9 st10">Triangle</text>
</g>
<g transform="rotate(191.34453781512605)translate(630)">
	
		<ellipse transform="matrix(0.1967 -0.9805 0.9805 0.1967 -132.8773 -1337.8154)" class="st4" cx="-882.9" cy="-587.8" rx="4.5" ry="4.5"/>
	<text transform="matrix(-1 0 0 -1 -832.097 -591.2256)" class="st9 st10">Tam-tam</text>
</g>
<g transform="rotate(194.36974789915968)translate(630)">
	
		<ellipse transform="matrix(0.2482 -0.9687 0.9687 0.2482 -162.6692 -1290.4025)" class="st4" cx="-912.7" cy="-540.4" rx="4.5" ry="4.5"/>
	<text transform="matrix(-1 0 0 -1 -845.3728 -543.8123)" class="st9 st10">Snare Drum</text>
</g>
<g transform="rotate(197.3949579831933)translate(630)">
	
		<ellipse transform="matrix(0.299 -0.9543 0.9543 0.299 -189.9176 -1241.4818)" class="st4" cx="-939.9" cy="-491.5" rx="4.5" ry="4.5"/>
	<text transform="matrix(-1 0 0 -1 -889.131 -494.8922)" class="st9 st10">Marimba</text>
</g>
<g transform="rotate(200.42016806722688)translate(630)">
	
		<ellipse transform="matrix(0.3489 -0.9372 0.9372 0.3489 -214.5461 -1191.1932)" class="st4" cx="-964.5" cy="-441.2" rx="4.5" ry="4.5"/>
	<text transform="matrix(-1 0 0 -1 -893.9784 -444.6029)" class="st9 st10">Tubular bells</text>
</g>
<g transform="rotate(203.4453781512605)translate(630)">
	
		<ellipse transform="matrix(0.3979 -0.9174 0.9174 0.3979 -236.4861 -1139.6735)" class="st4" cx="-986.5" cy="-389.7" rx="4.5" ry="4.5"/>
	<text transform="matrix(-1 0 0 -1 -922.4168 -393.0836)" class="st9 st10">Vibraphone</text>
</g>
<g transform="rotate(206.4705882352941)translate(630)">
	
		<ellipse transform="matrix(0.4457 -0.8952 0.8952 0.4457 -255.6762 -1087.0693)" class="st4" cx="-1005.7" cy="-337.1" rx="4.5" ry="4.5"/>
	<text transform="matrix(-1 0 0 -1 -942.0429 -340.4789)" class="st9 st10">Tenor drum</text>
</g>
<g transform="rotate(209.49579831932772)translate(630)">
	
		<ellipse transform="matrix(0.4924 -0.8704 0.8704 0.4924 -272.0637 -1033.5237)" class="st4" cx="-1022.1" cy="-283.5" rx="4.5" ry="4.5"/>
	<text transform="matrix(-1 0 0 -1 -951.0872 -286.9339)" class="st9 st10">Glockenspiel</text>
</g>
<g transform="rotate(212.52100840336135)translate(630)">
	
		<ellipse transform="matrix(0.5376 -0.8432 0.8432 0.5376 -285.6028 -979.1893)" class="st4" cx="-1035.6" cy="-229.2" rx="4.5" ry="4.5"/>
	<text transform="matrix(-1 0 0 -1 -984.8165 -232.5988)" class="st9 st10">Cymbals</text>
</g>
<g transform="rotate(215.54621848739492)translate(630)">
	
		<ellipse transform="matrix(0.5814 -0.8136 0.8136 0.5814 -296.2549 -924.215)" class="st4" cx="-1046.3" cy="-174.2" rx="4.5" ry="4.5"/>
	<text transform="matrix(-1 0 0 -1 -980.9825 -177.6251)" class="st9 st10">Wood block</text>
</g>
<g transform="rotate(218.57142857142856)translate(630)">
	
		<ellipse transform="matrix(0.6235 -0.7818 0.7818 0.6235 -303.9907 -868.7559)" class="st4" cx="-1054" cy="-118.8" rx="4.5" ry="4.5"/>
	<text transform="matrix(-1 0 0 -1 -991.592 -122.1662)" class="st9 st10">Bass Drum</text>
</g>
<g transform="rotate(221.5966386554622)translate(630)">
	
		<ellipse transform="matrix(0.6639 -0.7478 0.7478 0.6639 -308.7895 -812.9664)" class="st4" cx="-1058.8" cy="-63" rx="4.5" ry="4.5"/>
	<text transform="matrix(-1 0 0 -1 -998.8032 -66.3762)" class="st9 st10">Xylophone</text>
</g>
<g transform="rotate(233.69747899159665)translate(420.00000000000006)">
	
		<ellipse transform="matrix(0.8059 -0.592 0.592 0.8059 -298.4629 -589.6099)" class="st4" cx="-1048.5" cy="160.4" rx="4.5" ry="4.5"/>
	<text transform="matrix(-1 0 0 -1 -1012.3458 156.9799)" class="st7 st8">Brass</text>
</g>
<g transform="rotate(227.6470588235294)translate(630)">
	
		<ellipse transform="matrix(0.739 -0.6737 0.6737 0.739 -309.5281 -701.0148)" class="st4" cx="-1059.5" cy="49" rx="4.5" ry="4.5"/>
	<text transform="matrix(-1 0 0 -1 -996.3025 45.5746)" class="st9 st10">Trombones</text>
</g>
<g transform="rotate(230.67226890756302)translate(630)">
	
		<ellipse transform="matrix(0.7735 -0.6338 0.6338 0.7735 -305.467 -645.1661)" class="st4" cx="-1055.5" cy="104.8" rx="4.5" ry="4.5"/>
	<text transform="matrix(-1 0 0 -1 -1001.4203 101.4246)" class="st9 st10">Trumpets</text>
</g>
<g transform="rotate(233.69747899159665)translate(630)">
	
		<ellipse transform="matrix(0.8059 -0.592 0.592 0.8059 -298.4629 -589.6099)" class="st4" cx="-1048.5" cy="160.4" rx="4.5" ry="4.5"/>
	<text transform="matrix(-1 0 0 -1 -974.4202 156.9798)" class="st9 st10">Baritone horn</text>
</g>
<g transform="rotate(236.72268907563023)translate(630)">
	
		<ellipse transform="matrix(0.836 -0.5487 0.5487 0.836 -288.5373 -534.5001)" class="st4" cx="-1038.5" cy="215.5" rx="4.5" ry="4.5"/>
	<text transform="matrix(-1 0 0 -1 -1000.3732 212.0899)" class="st9 st10">Tubas</text>
</g>
<g transform="rotate(239.74789915966386)translate(630)">
	
		<ellipse transform="matrix(0.8638 -0.5038 0.5038 0.8638 -275.7169 -479.9915)" class="st4" cx="-1025.7" cy="270" rx="4.5" ry="4.5"/>
	<text transform="matrix(-1 0 0 -1 -951.0833 266.5985)" class="st9 st10">French Horns</text>
</g>
<g transform="rotate(248.8235294117647)translate(420.00000000000006)">
	
		<ellipse transform="matrix(0.9325 -0.3612 0.3612 0.9325 -220.2853 -321.5771)" class="st4" cx="-970.3" cy="428.4" rx="4.5" ry="4.5"/>
	<text transform="matrix(-1 0 0 -1 -909.6971 425.0125)" class="st7 st8">Keyboards</text>
</g>
<g transform="rotate(245.79831932773112)translate(630)">
	
		<ellipse transform="matrix(0.9121 -0.4099 0.4099 0.9121 -241.5433 -373.3813)" class="st4" cx="-991.5" cy="376.6" rx="4.5" ry="4.5"/>
	<text transform="matrix(-1 0 0 -1 -930.3375 373.2086)" class="st9 st10">Pipe organ</text>
</g>
<g transform="rotate(248.8235294117647)translate(630)">
	
		<ellipse transform="matrix(0.9325 -0.3612 0.3612 0.9325 -220.2853 -321.5771)" class="st4" cx="-970.3" cy="428.4" rx="4.5" ry="4.5"/>
	<text transform="matrix(-1 0 0 -1 -934.1519 425.0127)" class="st9 st10">Piano</text>
</g>
<g transform="rotate(251.84873949579833)translate(630)">
	
		<ellipse transform="matrix(0.9502 -0.3115 0.3115 0.9502 -196.323 -270.9671)" class="st4" cx="-946.3" cy="479" rx="4.5" ry="4.5"/>
	<text transform="matrix(-1 0 0 -1 -901.0267 475.6228)" class="st9 st10">Celesta</text>
</g>
<g transform="rotate(262.43697478991595)translate(420.00000000000006)">
	
		<ellipse transform="matrix(0.9913 -0.1316 0.1316 0.9913 -92.1879 -105.2369)" class="st4" cx="-842.2" cy="644.8" rx="4.5" ry="4.5"/>
	<text transform="matrix(-1 0 0 -1 -777.5283 641.3529)" class="st7 st8">Woodwinds</text>
</g>
<g transform="rotate(257.89915966386553)translate(630)">
	
		<ellipse transform="matrix(0.9778 -0.2096 0.2096 0.9778 -140.5597 -173.8895)" class="st4" cx="-890.6" cy="576.1" rx="4.5" ry="4.5"/>
	<text transform="matrix(-1 0 0 -1 -850.1508 572.7003)" class="st9 st10">Oboes</text>
</g>
<g transform="rotate(260.92436974789916)translate(630)">
	
		<ellipse transform="matrix(0.9875 -0.1577 0.1577 0.9875 -108.9142 -127.6927)" class="st4" cx="-858.9" cy="622.3" rx="4.5" ry="4.5"/>
	<text transform="matrix(-1 0 0 -1 -820.9597 618.8972)" class="st9 st10">Flutes</text>
</g>
<g transform="rotate(263.94957983193274)translate(630)">
	
		<ellipse transform="matrix(0.9944 -0.1054 0.1054 0.9944 -74.8747 -83.2305)" class="st4" cx="-824.9" cy="666.8" rx="4.5" ry="4.5"/>
	<text transform="matrix(-1 0 0 -1 -773.4709 663.3592)" class="st9 st10">Clarinets</text>
</g>
<g transform="rotate(266.9747899159664)translate(630)">
	
		<ellipse transform="matrix(0.9986 -5.277530e-002 5.277530e-002 0.9986 -38.5363 -40.6267)" class="st4" cx="-788.5" cy="709.4" rx="4.5" ry="4.5"/>
	<text transform="matrix(-1 0 0 -1 -732.2288 705.9645)" class="st9 st10">Bassoons</text>
</g>
</svg>
