<?xml version="1.0" encoding="utf-8"?>
<!-- Generator: Adobe Illustrator 19.2.0, SVG Export Plug-In . SVG Version: 6.00 Build 0)  -->
<svg version="1.1" id="Capa_1" xmlns="http://www.w3.org/2000/svg" xmlns:xlink="http://www.w3.org/1999/xlink" x="0px" y="0px"
	 viewBox="0 0 900 1500" style="enable-background:new 0 0 900 1500;" xml:space="preserve">
<style type="text/css">
	.st0{fill:none;stroke:#CCCCCC;}
	.st1{fill:#EEEEEE;stroke:#999999;}
	.st2{font-family:'GillSansDisplayMTPro-Bold';}
	.st3{font-size:14.1732px;}
	.st4{font-family:'GillSansMT-Italic';}
	.st5{font-family:'GillSansMTPro-Light';}
	.st6{font-size:11px;}
</style>
<path class="st0" d="M40,789.9c123.3,0,123.3-610.2,246.7-610.2"/>
<path class="st0" d="M40,789.9c123.3,0,123.3-282.1,246.7-282.1"/>
<path class="st0" d="M40,789.9c123.3,0,123.3,2.2,246.7,2.2"/>
<path class="st0" d="M40,789.9c123.3,0,123.3,294.4,246.7,294.4"/>
<path class="st0" d="M40,789.9c123.3,0,123.3,595.6,246.7,595.6"/>
<path class="st0" d="M286.7,179.7C410,179.7,410,27.1,533.3,27.1"/>
<path class="st0" d="M286.7,179.7C410,179.7,410,72.3,533.3,72.3"/>
<path class="st0" d="M286.7,179.7c123.3,0,123.3-71.3,246.7-71.3"/>
<path class="st0" d="M286.7,179.7c123.3,0,123.3-35.1,246.7-35.1"/>
<path class="st0" d="M286.7,179.7c123.3,0,123.3,1,246.7,1"/>
<path class="st0" d="M286.7,179.7c123.3,0,123.3,37.1,246.7,37.1"/>
<path class="st0" d="M286.7,179.7C410,179.7,410,253,533.3,253"/>
<path class="st0" d="M286.7,179.7c123.3,0,123.3,109.4,246.7,109.4"/>
<path class="st0" d="M286.7,179.7c123.3,0,123.3,145.6,246.7,145.6"/>
<path class="st0" d="M533.3,27.1c123.3,0,123.3-9,246.7-9"/>
<path class="st0" d="M533.3,27.1c123.3,0,123.3,9,246.7,9"/>
<path class="st0" d="M533.3,72.3c123.3,0,123.3,0,246.7,0"/>
<path class="st0" d="M533.3,108.4c123.3,0,123.3,0,246.7,0"/>
<path class="st0" d="M533.3,144.6c123.3,0,123.3,0,246.7,0"/>
<path class="st0" d="M533.3,180.7c123.3,0,123.3,0,246.7,0"/>
<path class="st0" d="M533.3,216.9c123.3,0,123.3,0,246.7,0"/>
<path class="st0" d="M533.3,253c123.3,0,123.3,0,246.7,0"/>
<path class="st0" d="M533.3,289.2c123.3,0,123.3,0,246.7,0"/>
<path class="st0" d="M533.3,325.3c123.3,0,123.3,0,246.7,0"/>
<path class="st0" d="M286.7,507.8c123.3,0,123.3-110.2,246.7-110.2"/>
<path class="st0" d="M286.7,507.8c123.3,0,123.3-38,246.7-38"/>
<path class="st0" d="M286.7,507.8c123.3,0,123.3,7.2,246.7,7.2"/>
<path class="st0" d="M286.7,507.8c123.3,0,123.3,52.4,246.7,52.4"/>
<path class="st0" d="M286.7,507.8c123.3,0,123.3,88.6,246.7,88.6"/>
<path class="st0" d="M533.3,397.6c123.3,0,123.3-36.1,246.7-36.1"/>
<path class="st0" d="M533.3,397.6c123.3,0,123.3-18.1,246.7-18.1"/>
<path class="st0" d="M533.3,397.6c123.3,0,123.3,0,246.7,0"/>
<path class="st0" d="M533.3,397.6c123.3,0,123.3,18.1,246.7,18.1"/>
<path class="st0" d="M533.3,397.6c123.3,0,123.3,36.1,246.7,36.1"/>
<path class="st0" d="M533.3,469.9c123.3,0,123.3,0,246.7,0"/>
<path class="st0" d="M533.3,515.1c123.3,0,123.3-9,246.7-9"/>
<path class="st0" d="M533.3,515.1c123.3,0,123.3,9,246.7,9"/>
<path class="st0" d="M533.3,560.2c123.3,0,123.3,0,246.7,0"/>
<path class="st0" d="M533.3,596.4c123.3,0,123.3,0,246.7,0"/>
<path class="st0" d="M286.7,792.2c123.3,0,123.3-159.6,246.7-159.6"/>
<path class="st0" d="M286.7,792.2c123.3,0,123.3-114.5,246.7-114.5"/>
<path class="st0" d="M286.7,792.2c123.3,0,123.3-69.3,246.7-69.3"/>
<path class="st0" d="M286.7,792.2C410,792.2,410,759,533.3,759"/>
<path class="st0" d="M286.7,792.2c123.3,0,123.3,3,246.7,3"/>
<path class="st0" d="M286.7,792.2c123.3,0,123.3,39.2,246.7,39.2"/>
<path class="st0" d="M286.7,792.2c123.3,0,123.3,75.3,246.7,75.3"/>
<path class="st0" d="M286.7,792.2c123.3,0,123.3,111.4,246.7,111.4"/>
<path class="st0" d="M286.7,792.2c123.3,0,123.3,147.6,246.7,147.6"/>
<path class="st0" d="M533.3,632.5c123.3,0,123.3,0,246.7,0"/>
<path class="st0" d="M533.3,677.7c123.3,0,123.3-9,246.7-9"/>
<path class="st0" d="M533.3,677.7c123.3,0,123.3,9,246.7,9"/>
<path class="st0" d="M533.3,722.9c123.3,0,123.3,0,246.7,0"/>
<path class="st0" d="M533.3,759c123.3,0,123.3,0,246.7,0"/>
<path class="st0" d="M533.3,795.2c123.3,0,123.3,0,246.7,0"/>
<path class="st0" d="M533.3,831.3c123.3,0,123.3,0,246.7,0"/>
<path class="st0" d="M533.3,867.5c123.3,0,123.3,0,246.7,0"/>
<path class="st0" d="M533.3,903.6c123.3,0,123.3,0,246.7,0"/>
<path class="st0" d="M533.3,939.8c123.3,0,123.3,0,246.7,0"/>
<path class="st0" d="M286.7,1084.3c123.3,0,123.3-99.4,246.7-99.4"/>
<path class="st0" d="M286.7,1084.3c123.3,0,123.3-45.2,246.7-45.2"/>
<path class="st0" d="M286.7,1084.3c123.3,0,123.3,36.1,246.7,36.1"/>
<path class="st0" d="M286.7,1084.3c123.3,0,123.3,108.4,246.7,108.4"/>
<path class="st0" d="M533.3,984.9c123.3,0,123.3-9,246.7-9"/>
<path class="st0" d="M533.3,984.9c123.3,0,123.3,9,246.7,9"/>
<path class="st0" d="M533.3,1039.2c123.3,0,123.3-9,246.7-9"/>
<path class="st0" d="M533.3,1039.2c123.3,0,123.3,9,246.7,9"/>
<path class="st0" d="M533.3,1120.5c123.3,0,123.3-36.1,246.7-36.1"/>
<path class="st0" d="M533.3,1120.5c123.3,0,123.3-18.1,246.7-18.1"/>
<path class="st0" d="M533.3,1120.5c123.3,0,123.3,0,246.7,0"/>
<path class="st0" d="M533.3,1120.5c123.3,0,123.3,18.1,246.7,18.1"/>
<path class="st0" d="M533.3,1120.5c123.3,0,123.3,36.1,246.7,36.1"/>
<path class="st0" d="M533.3,1192.8c123.3,0,123.3,0,246.7,0"/>
<path class="st0" d="M286.7,1385.5c123.3,0,123.3-120.5,246.7-120.5"/>
<path class="st0" d="M286.7,1385.5c123.3,0,123.3-48.2,246.7-48.2"/>
<path class="st0" d="M286.7,1385.5c123.3,0,123.3-12,246.7-12"/>
<path class="st0" d="M286.7,1385.5c123.3,0,123.3,24.1,246.7,24.1"/>
<path class="st0" d="M286.7,1385.5c123.3,0,123.3,60.2,246.7,60.2"/>
<path class="st0" d="M286.7,1385.5c123.3,0,123.3,96.4,246.7,96.4"/>
<path class="st0" d="M533.3,1265.1c123.3,0,123.3-36.1,246.7-36.1"/>
<path class="st0" d="M533.3,1265.1c123.3,0,123.3-18.1,246.7-18.1"/>
<path class="st0" d="M533.3,1265.1c123.3,0,123.3,0,246.7,0"/>
<path class="st0" d="M533.3,1265.1c123.3,0,123.3,18.1,246.7,18.1"/>
<path class="st0" d="M533.3,1265.1c123.3,0,123.3,36.1,246.7,36.1"/>
<path class="st0" d="M533.3,1337.3c123.3,0,123.3,0,246.7,0"/>
<path class="st0" d="M533.3,1373.5c123.3,0,123.3,0,246.7,0"/>
<path class="st0" d="M533.3,1409.6c123.3,0,123.3,0,246.7,0"/>
<path class="st0" d="M533.3,1445.8c123.3,0,123.3,0,246.7,0"/>
<path class="st0" d="M533.3,1481.9c123.3,0,123.3,0,246.7,0"/>
<g transform="translate(0,789.9196787148596)">
	<circle class="st1" cx="40" cy="0" r="4.5"/>
</g>
<g transform="translate(246.66666666666669,179.71887550200805)">
	<circle class="st1" cx="40" cy="0" r="4.5"/>
	<text transform="matrix(1 0 0 1 11.8823 3)" class="st2 st3">AFRICA</text>
</g>
<g transform="translate(493.33333333333337,27.10843373493976)">
	<circle class="st1" cx="40" cy="0" r="4.5"/>
	<text transform="matrix(1 0 0 1 11.8716 3)" class="st4 st3">Egypt</text>
</g>
<g transform="translate(740,18.072289156626507)">
	<circle class="st1" cx="40" cy="0" r="4.5"/>
	<text transform="matrix(1 0 0 1 48 3)" class="st5 st6">Cairo</text>
</g>
<g transform="translate(740,36.144578313253014)">
	<circle class="st1" cx="40" cy="0" r="4.5"/>
	<text transform="matrix(1 0 0 1 48 3)" class="st5 st6">Alexandria</text>
</g>
<g transform="translate(493.33333333333337,72.28915662650603)">
	<circle class="st1" cx="40" cy="0" r="4.5"/>
	<text transform="matrix(1 0 0 1 5.1524 3)" class="st4 st3">Nigeria</text>
</g>
<g transform="translate(740,72.28915662650603)">
	<circle class="st1" cx="40" cy="0" r="4.5"/>
	<text transform="matrix(1 0 0 1 48 3)" class="st5 st6">Lagos</text>
</g>
<g transform="translate(493.33333333333337,108.43373493975903)">
	<circle class="st1" cx="40" cy="0" r="4.5"/>
	<text transform="matrix(1 0 0 1 0.2593 3)" class="st4 st3">Somalia</text>
</g>
<g transform="translate(740,108.43373493975903)">
	<circle class="st1" cx="40" cy="0" r="4.5"/>
	<text transform="matrix(1 0 0 1 48 3)" class="st5 st6">Mogadishu</text>
</g>
<g transform="translate(493.33333333333337,144.57831325301206)">
	<circle class="st1" cx="40" cy="0" r="4.5"/>
	<text transform="matrix(1 0 0 1 8.1924 3)" class="st4 st3">Sudan</text>
</g>
<g transform="translate(740,144.57831325301206)">
	<circle class="st1" cx="40" cy="0" r="4.5"/>
	<text transform="matrix(1 0 0 1 48 3)" class="st5 st6">Khartoum-Omdurman</text>
</g>
<g transform="translate(493.33333333333337,180.72289156626505)">
	<circle class="st1" cx="40" cy="0" r="4.5"/>
	<text transform="matrix(1 0 0 1 5.7486 3)" class="st4 st3">Angola</text>
</g>
<g transform="translate(740,180.72289156626505)">
	<circle class="st1" cx="40" cy="0" r="4.5"/>
	<text transform="matrix(1 0 0 1 48 3)" class="st5 st6">Luanda</text>
</g>
<g transform="translate(493.33333333333337,216.86746987951807)">
	<circle class="st1" cx="40" cy="0" r="4.5"/>
	<text transform="matrix(1 0 0 1 -4.0322 3)" class="st4 st3">Tanzania</text>
</g>
<g transform="translate(740,216.86746987951807)">
	<circle class="st1" cx="40" cy="0" r="4.5"/>
	<text transform="matrix(1 0 0 1 48 3)" class="st5 st6">Dar es Salaam</text>
</g>
<g transform="translate(493.33333333333337,253.01204819277106)">
	<circle class="st1" cx="40" cy="0" r="4.5"/>
	<text transform="matrix(1 0 0 1 -15.6284 3)" class="st4 st3">Ivory Coast</text>
</g>
<g transform="translate(740,253.01204819277106)">
	<circle class="st1" cx="40" cy="0" r="4.5"/>
	<text transform="matrix(1 0 0 1 48 3)" class="st5 st6">Abidjan</text>
</g>
<g transform="translate(493.33333333333337,289.1566265060241)">
	<circle class="st1" cx="40" cy="0" r="4.5"/>
	<text transform="matrix(1 0 0 1 -19.313 3)" class="st4 st3">South Africa</text>
</g>
<g transform="translate(740,289.1566265060241)">
	<circle class="st1" cx="40" cy="0" r="4.5"/>
	<text transform="matrix(1 0 0 1 48 3)" class="st5 st6">Greater Johannesburg</text>
</g>
<g transform="translate(493.33333333333337,325.30120481927713)">
	<circle class="st1" cx="40" cy="0" r="4.5"/>
	<text transform="matrix(1 0 0 1 -127.5298 3)" class="st4 st3">Democratic Republic of the Congo</text>
</g>
<g transform="translate(740,325.30120481927713)">
	<circle class="st1" cx="40" cy="0" r="4.5"/>
	<text transform="matrix(1 0 0 1 48 3)" class="st5 st6">Kinshasa-Brazzaville</text>
</g>
<g transform="translate(246.66666666666669,507.83132530120486)">
	<circle class="st1" cx="40" cy="0" r="4.5"/>
	<text transform="matrix(1 0 0 1 17.1698 1.1926)" class="st2 st3">ASIA</text>
</g>
<g transform="translate(493.33333333333337,397.5903614457832)">
	<circle class="st1" cx="40" cy="0" r="4.5"/>
	<text transform="matrix(1 0 0 1 11.2593 3)" class="st4 st3">China</text>
</g>
<g transform="translate(740,361.4457831325301)">
	<circle class="st1" cx="40" cy="0" r="4.5"/>
	<text transform="matrix(1 0 0 1 48 3)" class="st5 st6">Beijing</text>
</g>
<g transform="translate(740,379.5180722891566)">
	<circle class="st1" cx="40" cy="0" r="4.5"/>
	<text transform="matrix(1 0 0 1 48 3)" class="st5 st6">Tianjin</text>
</g>
<g transform="translate(740,397.5903614457832)">
	<circle class="st1" cx="40" cy="0" r="4.5"/>
	<text transform="matrix(1 0 0 1 48 3)" class="st5 st6">Guangzhou</text>
</g>
<g transform="translate(740,415.66265060240966)">
	<circle class="st1" cx="40" cy="0" r="4.5"/>
	<text transform="matrix(1 0 0 1 48 3)" class="st5 st6">Shenzhen</text>
</g>
<g transform="translate(740,433.73493975903614)">
	<circle class="st1" cx="40" cy="0" r="4.5"/>
	<text transform="matrix(1 0 0 1 48 3)" class="st5 st6">Shanghai</text>
</g>
<g transform="translate(493.33333333333337,469.87951807228916)">
	<circle class="st1" cx="40" cy="0" r="4.5"/>
	<text transform="matrix(1 0 0 1 10.0293 3)" class="st4 st3">Japan</text>
</g>
<g transform="translate(740,469.87951807228916)">
	<circle class="st1" cx="40" cy="0" r="4.5"/>
	<text transform="matrix(1 0 0 1 48 3)" class="st5 st6">Tokyo</text>
</g>
<g transform="translate(493.33333333333337,515.0602409638554)">
	<circle class="st1" cx="40" cy="0" r="4.5"/>
	<text transform="matrix(1 0 0 1 16.147 3)" class="st4 st3">India</text>
</g>
<g transform="translate(740,506.0240963855421)">
	<circle class="st1" cx="40" cy="0" r="4.5"/>
	<text transform="matrix(1 0 0 1 48 3)" class="st5 st6">Mumbai</text>
</g>
<g transform="translate(740,524.0963855421687)">
	<circle class="st1" cx="40" cy="0" r="4.5"/>
	<text transform="matrix(1 0 0 1 48 3)" class="st5 st6">Delhi</text>
</g>
<g transform="translate(493.33333333333337,560.2409638554217)">
	<circle class="st1" cx="40" cy="0" r="4.5"/>
	<text transform="matrix(1 0 0 1 -7.706 3)" class="st4 st3">Indonesia</text>
</g>
<g transform="translate(740,560.2409638554217)">
	<circle class="st1" cx="40" cy="0" r="4.5"/>
	<text transform="matrix(1 0 0 1 48 3)" class="st5 st6">Jakarta</text>
</g>
<g transform="translate(493.33333333333337,596.3855421686748)">
	<circle class="st1" cx="40" cy="0" r="4.5"/>
	<text transform="matrix(1 0 0 1 -2.1899 3)" class="st4 st3">Pakistan</text>
</g>
<g transform="translate(740,596.3855421686748)">
	<circle class="st1" cx="40" cy="0" r="4.5"/>
	<text transform="matrix(1 0 0 1 48 3)" class="st5 st6">Karachi</text>
</g>
<g transform="translate(246.66666666666669,792.1686746987953)">
	<circle class="st1" cx="40" cy="0" r="4.5"/>
	<text transform="matrix(1 0 0 1 4.5293 3)" class="st2 st3">EUROPE</text>
</g>
<g transform="translate(493.33333333333337,632.5301204819277)">
	<circle class="st1" cx="40" cy="0" r="4.5"/>
	<text transform="matrix(1 0 0 1 6.7906 3)" class="st4 st3">Turkey</text>
</g>
<g transform="translate(740,632.5301204819277)">
	<circle class="st1" cx="40" cy="0" r="4.5"/>
	<text transform="matrix(1 0 0 1 48 3)" class="st5 st6">Istanbul</text>
</g>
<g transform="translate(493.33333333333337,677.710843373494)">
	<circle class="st1" cx="40" cy="0" r="4.5"/>
	<text transform="matrix(1 0 0 1 6.377 3)" class="st4 st3">Russia</text>
</g>
<g transform="translate(740,668.6746987951807)">
	<circle class="st1" cx="40" cy="0" r="4.5"/>
	<text transform="matrix(1 0 0 1 48 3)" class="st5 st6">Moscow</text>
</g>
<g transform="translate(740,686.7469879518072)">
	<circle class="st1" cx="40" cy="0" r="4.5"/>
	<text transform="matrix(1 0 0 1 48 3)" class="st5 st6">Saint Petersburg</text>
</g>
<g transform="translate(493.33333333333337,722.8915662650602)">
	<circle class="st1" cx="40" cy="0" r="4.5"/>
	<text transform="matrix(1 0 0 1 -38.2675 3)" class="st4 st3">United Kingdom</text>
</g>
<g transform="translate(740,722.8915662650602)">
	<circle class="st1" cx="40" cy="0" r="4.5"/>
	<text transform="matrix(1 0 0 1 48 3)" class="st5 st6">London</text>
</g>
<g transform="translate(493.33333333333337,759.0361445783132)">
	<circle class="st1" cx="40" cy="0" r="4.5"/>
	<text transform="matrix(1 0 0 1 -5.2353 3)" class="st4 st3">Germany</text>
</g>
<g transform="translate(740,759.0361445783132)">
	<circle class="st1" cx="40" cy="0" r="4.5"/>
	<text transform="matrix(1 0 0 1 48 3)" class="st5 st6">Berlin</text>
</g>
<g transform="translate(493.33333333333337,795.1807228915663)">
	<circle class="st1" cx="40" cy="0" r="4.5"/>
	<text transform="matrix(1 0 0 1 11.8662 3)" class="st4 st3">Spain</text>
</g>
<g transform="translate(740,795.1807228915663)">
	<circle class="st1" cx="40" cy="0" r="4.5"/>
	<text transform="matrix(1 0 0 1 48 3)" class="st5 st6">Madrid</text>
</g>
<g transform="translate(493.33333333333337,831.3253012048193)">
	<circle class="st1" cx="40" cy="0" r="4.5"/>
	<text transform="matrix(1 0 0 1 2.0962 3)" class="st4 st3">Ukraine</text>
</g>
<g transform="translate(740,831.3253012048193)">
	<circle class="st1" cx="40" cy="0" r="4.5"/>
	<text transform="matrix(1 0 0 1 48 3)" class="st5 st6">Kiev</text>
</g>
<g transform="translate(493.33333333333337,867.4698795180723)">
	<circle class="st1" cx="40" cy="0" r="4.5"/>
	<text transform="matrix(1 0 0 1 19.8261 3)" class="st4 st3">Italy</text>
</g>
<g transform="translate(740,867.4698795180723)">
	<circle class="st1" cx="40" cy="0" r="4.5"/>
	<text transform="matrix(1 0 0 1 48 3)" class="st5 st6">Rome</text>
</g>
<g transform="translate(493.33333333333337,903.6144578313254)">
	<circle class="st1" cx="40" cy="0" r="4.5"/>
	<text transform="matrix(1 0 0 1 5.7647 3)" class="st4 st3">France</text>
</g>
<g transform="translate(740,903.6144578313254)">
	<circle class="st1" cx="40" cy="0" r="4.5"/>
	<text transform="matrix(1 0 0 1 48 3)" class="st5 st6">Paris</text>
</g>
<g transform="translate(493.33333333333337,939.7590361445783)">
	<circle class="st1" cx="40" cy="0" r="4.5"/>
	<text transform="matrix(1 0 0 1 2.7032 3)" class="st4 st3">Belarus</text>
</g>
<g transform="translate(740,939.7590361445783)">
	<circle class="st1" cx="40" cy="0" r="4.5"/>
	<text transform="matrix(1 0 0 1 48 3)" class="st5 st6">Minsk</text>
</g>
<g transform="translate(246.66666666666669,1084.3373493975903)">
	<circle class="st1" cx="40" cy="0" r="4.5"/>
	<text transform="matrix(1 0 0 1 -29.6899 3)" class="st2 st3">NORTH AMERICA</text>
</g>
<g transform="translate(493.33333333333337,984.9397590361446)">
	<circle class="st1" cx="40" cy="0" r="4.5"/>
	<text transform="matrix(1 0 0 1 5.1577 3)" class="st4 st3">Mexico</text>
</g>
<g transform="translate(740,975.9036144578313)">
	<circle class="st1" cx="40" cy="0" r="4.5"/>
	<text transform="matrix(1 0 0 1 48 3)" class="st5 st6">Mexico City</text>
</g>
<g transform="translate(740,993.9759036144578)">
	<circle class="st1" cx="40" cy="0" r="4.5"/>
	<text transform="matrix(1 0 0 1 48 3)" class="st5 st6">Ecatepec de Morelos</text>
</g>
<g transform="translate(493.33333333333337,1039.156626506024)">
	<circle class="st1" cx="40" cy="0" r="4.5"/>
	<text transform="matrix(1 0 0 1 1.4678 3)" class="st4 st3">Canada</text>
</g>
<g transform="translate(740,1030.120481927711)">
	<circle class="st1" cx="40" cy="0" r="4.5"/>
	<text transform="matrix(1 0 0 1 48 3)" class="st5 st6">Toronto</text>
</g>
<g transform="translate(740,1048.1927710843374)">
	<circle class="st1" cx="40" cy="0" r="4.5"/>
	<text transform="matrix(1 0 0 1 48 3)" class="st5 st6">Montreal</text>
</g>
<g transform="translate(493.33333333333337,1120.4819277108434)">
	<circle class="st1" cx="40" cy="0" r="4.5"/>
	<text transform="matrix(1 0 0 1 -26.0376 3)" class="st4 st3">United States</text>
</g>
<g transform="translate(740,1084.3373493975903)">
	<circle class="st1" cx="40" cy="0" r="4.5"/>
	<text transform="matrix(1 0 0 1 48 3)" class="st5 st6">Chicago</text>
</g>
<g transform="translate(740,1102.4096385542168)">
	<circle class="st1" cx="40" cy="0" r="4.5"/>
	<text transform="matrix(1 0 0 1 48 3)" class="st5 st6">Houston</text>
</g>
<g transform="translate(740,1120.4819277108434)">
	<circle class="st1" cx="40" cy="0" r="4.5"/>
	<text transform="matrix(1 0 0 1 48 3)" class="st5 st6">Philadelphia</text>
</g>
<g transform="translate(740,1138.55421686747)">
	<circle class="st1" cx="40" cy="0" r="4.5"/>
	<text transform="matrix(1 0 0 1 48 3)" class="st5 st6">New York City</text>
</g>
<g transform="translate(740,1156.6265060240964)">
	<circle class="st1" cx="40" cy="0" r="4.5"/>
	<text transform="matrix(1 0 0 1 48 3)" class="st5 st6">Los Angeles</text>
</g>
<g transform="translate(493.33333333333337,1192.7710843373495)">
	<circle class="st1" cx="40" cy="0" r="4.5"/>
	<text transform="matrix(1 0 0 1 13.7032 3)" class="st4 st3">Cuba</text>
</g>
<g transform="translate(740,1192.7710843373495)">
	<circle class="st1" cx="40" cy="0" r="4.5"/>
	<text transform="matrix(1 0 0 1 48 3)" class="st5 st6">Havana</text>
</g>
<g transform="translate(246.66666666666669,1385.5421686746988)">
	<circle class="st1" cx="40" cy="0" r="4.5"/>
	<text transform="matrix(1 0 0 1 -31.5376 3)" class="st2 st3">SOUTH AMERICA</text>
</g>
<g transform="translate(493.33333333333337,1265.0602409638554)">
	<circle class="st1" cx="40" cy="0" r="4.5"/>
	<text transform="matrix(1 0 0 1 12.4947 3)" class="st4 st3">Brazil</text>
</g>
<g transform="translate(740,1228.9156626506024)">
	<circle class="st1" cx="40" cy="0" r="4.5"/>
	<text transform="matrix(1 0 0 1 48 3)" class="st5 st6">São Paulo</text>
</g>
<g transform="translate(740,1246.987951807229)">
	<circle class="st1" cx="40" cy="0" r="4.5"/>
	<text transform="matrix(1 0 0 1 48 3)" class="st5 st6">Rio de Janeiro</text>
</g>
<g transform="translate(740,1265.0602409638554)">
	<circle class="st1" cx="40" cy="0" r="4.5"/>
	<text transform="matrix(1 0 0 1 48 3)" class="st5 st6">Salvador</text>
</g>
<g transform="translate(740,1283.132530120482)">
	<circle class="st1" cx="40" cy="0" r="4.5"/>
	<text transform="matrix(1 0 0 1 48 3)" class="st5 st6">Brasília</text>
</g>
<g transform="translate(740,1301.2048192771085)">
	<circle class="st1" cx="40" cy="0" r="4.5"/>
	<text transform="matrix(1 0 0 1 48 3)" class="st5 st6">Fortaleza</text>
</g>
<g transform="translate(493.33333333333337,1337.3493975903614)">
	<circle class="st1" cx="40" cy="0" r="4.5"/>
	<text transform="matrix(1 0 0 1 16.7647 3)" class="st4 st3">Peru</text>
</g>
<g transform="translate(740,1337.3493975903614)">
	<circle class="st1" cx="40" cy="0" r="4.5"/>
	<text transform="matrix(1 0 0 1 48 3)" class="st5 st6">Lima</text>
</g>
<g transform="translate(493.33333333333337,1373.4939759036145)">
	<circle class="st1" cx="40" cy="0" r="4.5"/>
	<text transform="matrix(1 0 0 1 -6.4653 3)" class="st4 st3">Colombia</text>
</g>
<g transform="translate(740,1373.4939759036145)">
	<circle class="st1" cx="40" cy="0" r="4.5"/>
	<text transform="matrix(1 0 0 1 48 3)" class="st5 st6">Bogotá</text>
</g>
<g transform="translate(493.33333333333337,1409.6385542168675)">
	<circle class="st1" cx="40" cy="0" r="4.5"/>
	<text transform="matrix(1 0 0 1 14.9331 3)" class="st4 st3">Chile</text>
</g>
<g transform="translate(740,1409.6385542168675)">
	<circle class="st1" cx="40" cy="0" r="4.5"/>
	<text transform="matrix(1 0 0 1 48 3)" class="st5 st6">Santiago</text>
</g>
<g transform="translate(493.33333333333337,1445.7831325301204)">
	<circle class="st1" cx="40" cy="0" r="4.5"/>
	<text transform="matrix(1 0 0 1 -11.3799 3)" class="st4 st3">Venezuela</text>
</g>
<g transform="translate(740,1445.7831325301204)">
	<circle class="st1" cx="40" cy="0" r="4.5"/>
	<text transform="matrix(1 0 0 1 48 3)" class="st5 st6">Caracas</text>
</g>
<g transform="translate(493.33333333333337,1481.9277108433735)">
	<circle class="st1" cx="40" cy="0" r="4.5"/>
	<text transform="matrix(1 0 0 1 -7.0883 3)" class="st4 st3">Argentina</text>
</g>
<g transform="translate(740,1481.9277108433735)">
	<circle class="st1" cx="40" cy="0" r="4.5"/>
	<text transform="matrix(1 0 0 1 48 3)" class="st5 st6">Buenos Aires</text>
</g>
</svg>
