<svg width="800" height="533.3333333333334" xmlns="http://www.w3.org/2000/svg" version="1.1"><g transform="translate(133.33333333333334,133.33333333333334)"><g class="arc"><path d="M7.85815029452885e-15,-128.33333333333334A128.33333333333334,128.33333333333334 0 1,1 -80.73485497296116,-99.75634133697655L0,0Z" style="fill: rgb(237, 146, 146);"></path></g><g class="arc"><path d="M-80.73485497296116,-99.75634133697655A128.33333333333334,128.33333333333334 0 0,1 -40.32299025856334,-121.83390702531153L0,0Z" style="fill: rgb(105, 129, 191);"></path></g><g class="arc"><path d="M-40.32299025856334,-121.83390702531153A128.33333333333334,128.33333333333334 0 0,1 -1.3755734807843597e-13,-128.33333333333334L0,0Z" style="fill: rgb(105, 191, 186);"></path></g><text y="138.33333333333334" style="text-anchor: middle; font-size: 11px; font-family: Arial, Helvetica;">Adventure</text></g><g transform="translate(400,133.33333333333334)"><g class="arc"><path d="M7.328975146977093e-15,-119.69124733890312A119.69124733890312,119.69124733890312 0 1,1 -58.77056019314334,-104.26895963865084L0,0Z" style="fill: rgb(237, 146, 146);"></path></g><g class="arc"><path d="M-58.77056019314334,-104.26895963865084A119.69124733890312,119.69124733890312 0 0,1 -30.072646639016604,-115.8517613749024L0,0Z" style="fill: rgb(105, 129, 191);"></path></g><g class="arc"><path d="M-30.072646639016604,-115.8517613749024A119.69124733890312,119.69124733890312 0 0,1 -2.198692544093128e-14,-119.69124733890312L0,0Z" style="fill: rgb(105, 191, 186);"></path></g><text y="129.6912473389031" style="text-anchor: middle; font-size: 11px; font-family: Arial, Helvetica;">Action</text></g><g transform="translate(666.6666666666667,133.33333333333334)"><g class="arc"><path d="M3.684006930318501e-15,-60.164398957861984A60.164398957861984,60.164398957861984 0 1,1 -23.077017777033692,55.5626326993174L0,0Z" style="fill: rgb(237, 146, 146);"></path></g><g class="arc"><path d="M-23.077017777033692,55.5626326993174A60.164398957861984,60.164398957861984 0 0,1 -35.47526936330737,-48.592799523813916L0,0Z" style="fill: rgb(105, 129, 191);"></path></g><g class="arc"><path d="M-35.47526936330737,-48.592799523813916A60.164398957861984,60.164398957861984 0 0,1 4.2384699997646214e-14,-60.164398957861984L0,0Z" style="fill: rgb(105, 191, 186);"></path></g><text y="70.16439895786198" style="text-anchor: middle; font-size: 11px; font-family: Arial, Helvetica;">Drama</text></g><g transform="translate(133.33333333333334,400)"><g class="arc"><path d="M3.588656009879556e-15,-58.607200253626075A58.607200253626075,58.607200253626075 0 1,1 -37.06585277699806,-45.397428115285706L0,0Z" style="fill: rgb(237, 146, 146);"></path></g><g class="arc"><path d="M-37.06585277699806,-45.397428115285706A58.607200253626075,58.607200253626075 0 0,1 -17.21031721586622,-56.02328893324531L0,0Z" style="fill: rgb(105, 129, 191);"></path></g><g class="arc"><path d="M-17.21031721586622,-56.02328893324531A58.607200253626075,58.607200253626075 0 0,1 -1.0765968029638667e-14,-58.607200253626075L0,0Z" style="fill: rgb(105, 191, 186);"></path></g><text y="68.60720025362608" style="text-anchor: middle; font-size: 11px; font-family: Arial, Helvetica;">Thriller/Suspense</text></g><g transform="translate(400,400)"><g class="arc"><path d="M2.5163277897852034e-15,-41.09475142607924A41.09475142607924,41.09475142607924 0 1,1 -15.434239787074882,-38.086255223719704L0,0Z" style="fill: rgb(237, 146, 146);"></path></g><g class="arc"><path d="M-2.691224528481779,-41.0065349097987A41.09475142607924,41.09475142607924 0 0,1 -7.54898336935561e-15,-41.09475142607924L0,0Z" style="fill: rgb(105, 129, 191);"></path></g><g class="arc"><path d="M-15.434239787074882,-38.086255223719704A41.09475142607924,41.09475142607924 0 0,1 -2.691224528481779,-41.0065349097987L0,0Z" style="fill: rgb(105, 191, 186);"></path></g><text y="51.09475142607924" style="text-anchor: middle; font-size: 11px; font-family: Arial, Helvetica;">Comedy</text></g><g transform="translate(666.6666666666667,400)"><g class="arc"><path d="M1.8961103619596617e-15,-30.96583216123714A30.96583216123714,30.96583216123714 0 1,1 -15.175612498774688,-26.992286800583273L0,0Z" style="fill: rgb(237, 146, 146);"></path></g><g class="arc"><path d="M-4.673060393325029,-30.61119514161846A30.96583216123714,30.96583216123714 0 0,1 -5.688331085878985e-15,-30.96583216123714L0,0Z" style="fill: rgb(105, 129, 191);"></path></g><g class="arc"><path d="M-15.175612498774688,-26.992286800583273A30.96583216123714,30.96583216123714 0 0,1 -4.673060393325029,-30.61119514161846L0,0Z" style="fill: rgb(105, 191, 186);"></path></g><text y="40.965832161237145" style="text-anchor: middle; font-size: 11px; font-family: Arial, Helvetica;">Romantic Comedy</text></g></svg>