<svg width="1000" height="1000" xmlns="http://www.w3.org/2000/svg" version="1.1"><g transform="translate(500,500)"><g display="none"><path d="M0,353.5533905932738A353.5533905932738,353.5533905932738 0 1,1 0,-353.5533905932738A353.5533905932738,353.5533905932738 0 1,1 0,353.5533905932738Z" style="stroke: rgb(255, 255, 255); fill: rgb(191, 105, 105); fill-rule: evenodd;"></path><text transform="rotate(90)" x="0" dx="6" dy=".35em" style="font-size: 11px; font-family: Arial, Helvetica;"></text><title>undefined: none</title></g><g><path d="M3.061616997868383e-14,-500A500,500 0 0,1 48.25696045725761,-497.6658173588243L34.12282397877794,-351.90287421917054A353.5533905932738,353.5533905932738 0 0,0 2.1648901405887332e-14,-353.5533905932738Z" style="stroke: rgb(255, 255, 255); fill: rgb(191, 105, 105); fill-rule: evenodd;"></path><text transform="rotate(-87.23076923076924)" x="353.5533905932738" dx="6" dy=".35em" style="font-size: 11px; font-family: Arial, Helvetica;">African civet</text><title>African civet: 1</title></g><g><path d="M48.25696045725761,-497.6658173588243A500,500 0 0,1 96.06335867685426,-490.6850630697067L67.92705234395922,-346.9667355235384A353.5533905932738,353.5533905932738 0 0,0 34.12282397877794,-351.90287421917054Z" style="stroke: rgb(255, 255, 255); fill: rgb(191, 114, 105); fill-rule: evenodd;"></path><text transform="rotate(-81.6923076923077)" x="353.5533905932738" dx="6" dy=".35em" style="font-size: 11px; font-family: Arial, Helvetica;">Alligator</text><title>Alligator: 1</title></g><g><path d="M96.06335867685426,-490.6850630697067A500,500 0 0,1 142.9728391993446,-479.12291455458313L101.09706412335042,-338.79106190340855A353.5533905932738,353.5533905932738 0 0,0 67.92705234395922,-346.9667355235384Z" style="stroke: rgb(255, 255, 255); fill: rgb(191, 123, 105); fill-rule: evenodd;"></path><text transform="rotate(-76.15384615384615)" x="353.5533905932738" dx="6" dy=".35em" style="font-size: 11px; font-family: Arial, Helvetica;">Alligator snapping turtle</text><title>Alligator snapping turtle: 1</title></g><g><path d="M142.9728391993446,-479.12291455458313A500,500 0 0,1 188.54742084416023,-463.0873244788882L133.3231598541395,-327.452187420557A353.5533905932738,353.5533905932738 0 0,0 101.09706412335042,-338.79106190340855Z" style="stroke: rgb(255, 255, 255); fill: rgb(191, 132, 105); fill-rule: evenodd;"></path><text transform="rotate(-70.61538461538461)" x="353.5533905932738" dx="6" dy=".35em" style="font-size: 11px; font-family: Arial, Helvetica;">American bison</text><title>American bison: 1</title></g><g><path d="M188.54742084416023,-463.0873244788882A500,500 0 0,1 232.3615860218843,-442.728012826605L164.3044531633357,-313.05598009093717A353.5533905932738,353.5533905932738 0 0,0 133.3231598541395,-327.452187420557Z" style="stroke: rgb(255, 255, 255); fill: rgb(191, 141, 105); fill-rule: evenodd;"></path><text transform="rotate(-65.07692307692308)" x="353.5533905932738" dx="6" dy=".35em" style="font-size: 11px; font-family: Arial, Helvetica;">Arctic hare</text><title>Arctic hare: 1</title></g><g><path d="M232.3615860218843,-442.728012826605A500,500 0 0,1 274.006253677335,-418.23506900511336L193.75168006276496,-295.7368534235393A353.5533905932738,353.5533905932738 0 0,0 164.3044531633357,-313.05598009093717Z" style="stroke: rgb(255, 255, 255); fill: rgb(191, 149, 105); fill-rule: evenodd;"></path><text transform="rotate(-59.53846153846154)" x="353.5533905932738" dx="6" dy=".35em" style="font-size: 11px; font-family: Arial, Helvetica;">Black Rat</text><title>Black Rat: 1</title></g><g><path d="M274.006253677335,-418.23506900511336A500,500 0 0,1 313.09259876915684,-389.8371770316112L221.38989972898972,-275.6565114376729A353.5533905932738,353.5533905932738 0 0,0 193.75168006276496,-295.7368534235393Z" style="stroke: rgb(255, 255, 255); fill: rgb(191, 158, 105); fill-rule: evenodd;"></path><text transform="rotate(-54)" x="353.5533905932738" dx="6" dy=".35em" style="font-size: 11px; font-family: Arial, Helvetica;">Black Woodpecker</text><title>Black Woodpecker: 1</title></g><g><path d="M313.09259876915684,-389.8371770316112A500,500 0 0,1 349.2556826244685,-357.79948037206054L246.96106155169835,-253.00243887610705A353.5533905932738,353.5533905932738 0 0,0 221.38989972898972,-275.6565114376729Z" style="stroke: rgb(255, 255, 255); fill: rgb(191, 167, 105); fill-rule: evenodd;"></path><text transform="rotate(-48.46153846153847)" x="353.5533905932738" dx="6" dy=".35em" style="font-size: 11px; font-family: Arial, Helvetica;">Blowfish</text><title>Blowfish: 1</title></g><g><path d="M349.2556826244685,-357.79948037206054A500,500 0 0,1 382.15786027292415,-322.4211063680853L270.2264144827258,-227.98615071054226A353.5533905932738,353.5533905932738 0 0,0 246.96106155169835,-253.00243887610705Z" style="stroke: rgb(255, 255, 255); fill: rgb(191, 176, 105); fill-rule: evenodd;"></path><text transform="rotate(-42.92307692307693)" x="353.5533905932738" dx="6" dy=".35em" style="font-size: 11px; font-family: Arial, Helvetica;">Boa constrictor</text><title>Boa constrictor: 1</title></g><g><path d="M382.15786027292415,-322.4211063680853A500,500 0 0,1 411.49193294682823,-284.0323733655778L290.96873619026235,-200.84121728330945A353.5533905932738,353.5533905932738 0 0,0 270.2264144827258,-227.98615071054226Z" style="stroke: rgb(255, 255, 255); fill: rgb(191, 185, 105); fill-rule: evenodd;"></path><text transform="rotate(-37.38461538461538)" x="353.5533905932738" dx="6" dy=".35em" style="font-size: 11px; font-family: Arial, Helvetica;">Bowhead Whale</text><title>Bowhead Whale: 1</title></g><g><path d="M411.49193294682823,-284.0323733655778A500,500 0 0,1 436.984016313259,-242.991706621303L308.99436120523836,-171.82108352401545A353.5533905932738,353.5533905932738 0 0,0 290.96873619026235,-200.84121728330945Z" style="stroke: rgb(255, 255, 255); fill: rgb(188, 191, 105); fill-rule: evenodd;"></path><text transform="rotate(-31.846153846153847)" x="353.5533905932738" dx="6" dy=".35em" style="font-size: 11px; font-family: Arial, Helvetica;">Brown Bear</text><title>Brown Bear: 1</title></g><g><path d="M436.984016313259,-242.991706621303A500,500 0 0,1 458.39609765829124,-199.6822917828477L324.13498912362866,-141.19670260252244A353.5533905932738,353.5533905932738 0 0,0 308.99436120523836,-171.82108352401545Z" style="stroke: rgb(255, 255, 255); fill: rgb(179, 191, 105); fill-rule: evenodd;"></path><text transform="rotate(-26.307692307692303)" x="353.5533905932738" dx="6" dy=".35em" style="font-size: 11px; font-family: Arial, Helvetica;">Brown-throated sloth</text><title>Brown-throated sloth: 1</title></g><g><path d="M458.39609765829124,-199.6822917828477A500,500 0 0,1 475.5282581475768,-154.50849718747358L336.2492559819787,-109.25400611220519A353.5533905932738,353.5533905932738 0 0,0 324.13498912362866,-141.19670260252244Z" style="stroke: rgb(255, 255, 255); fill: rgb(170, 191, 105); fill-rule: evenodd;"></path><text transform="rotate(-20.769230769230766)" x="353.5533905932738" dx="6" dy=".35em" style="font-size: 11px; font-family: Arial, Helvetica;">Chans megastick</text><title>Chans megastick: 1</title></g><g><path d="M475.5282581475768,-154.50849718747358A500,500 0 0,1 488.22053941463605,-107.89209838390293L345.22405413464327,-76.29123440370391A353.5533905932738,353.5533905932738 0 0,0 336.2492559819787,-109.25400611220519Z" style="stroke: rgb(255, 255, 255); fill: rgb(161, 191, 105); fill-rule: evenodd;"></path><text transform="rotate(-15.230769230769225)" x="353.5533905932738" dx="6" dy=".35em" style="font-size: 11px; font-family: Arial, Helvetica;">Cockatoo</text><title>Cockatoo: 1</title></g><g><path d="M488.22053941463605,-107.89209838390293A500,500 0 0,1 496.35443704902707,-60.26834012766136L350.97558830939835,-42.616151995126664A353.5533905932738,353.5533905932738 0 0,0 345.22405413464327,-76.29123440370391Z" style="stroke: rgb(255, 255, 255); fill: rgb(152, 191, 105); fill-rule: evenodd;"></path><text transform="rotate(-9.692307692307681)" x="353.5533905932738" dx="6" dy=".35em" style="font-size: 11px; font-family: Arial, Helvetica;">Common Magpie</text><title>Common Magpie: 1</title></g><g><path d="M496.35443704902707,-60.26834012766136A500,500 0 0,1 499.85400704009646,-12.081872618065956L353.4501579813205,-8.543174057666505A353.5533905932738,353.5533905932738 0 0,0 350.97558830939835,-42.616151995126664Z" style="stroke: rgb(255, 255, 255); fill: rgb(143, 191, 105); fill-rule: evenodd;"></path><text transform="rotate(-4.15384615384614)" x="353.5533905932738" dx="6" dy=".35em" style="font-size: 11px; font-family: Arial, Helvetica;">Common bottlenose dolphin</text><title>Common bottlenose dolphin: 1</title></g><g><path d="M499.85400704009646,-12.081872618065956A500,500 0 0,1 498.6865748457455,36.2174000808814L352.6246587601195,25.60956919413745A353.5533905932738,353.5533905932738 0 0,0 353.4501579813205,-8.543174057666505Z" style="stroke: rgb(255, 255, 255); fill: rgb(135, 191, 105); fill-rule: evenodd;"></path><text transform="rotate(1.3846153846154012)" x="353.5533905932738" dx="6" dy=".35em" style="font-size: 11px; font-family: Arial, Helvetica;">Cynoscion nebulosus</text><title>Cynoscion nebulosus: 1</title></g><g><path d="M498.6865748457455,36.2174000808814A500,500 0 0,1 492.8630404658254,84.17852067351951L348.5067981096049,59.52320279849763A353.5533905932738,353.5533905932738 0 0,0 352.6246587601195,25.60956919413745Z" style="stroke: rgb(255, 255, 255); fill: rgb(126, 191, 105); fill-rule: evenodd;"></path><text transform="rotate(6.923076923076942)" x="353.5533905932738" dx="6" dy=".35em" style="font-size: 11px; font-family: Arial, Helvetica;">Dodo</text><title>Dodo: 1</title></g><g><path d="M492.8630404658254,84.17852067351951A500,500 0 0,1 482.4377766717757,131.35368909929372L341.1350233851738,92.88108429598007A353.5533905932738,353.5533905932738 0 0,0 348.5067981096049,59.52320279849763Z" style="stroke: rgb(255, 255, 255); fill: rgb(117, 191, 105); fill-rule: evenodd;"></path><text transform="rotate(12.461538461538485)" x="353.5533905932738" dx="6" dy=".35em" style="font-size: 11px; font-family: Arial, Helvetica;">Dog</text><title>Dog: 1</title></g><g><path d="M482.4377766717757,131.35368909929372A500,500 0 0,1 467.5081213427073,177.3024435212681L330.57816286121164,125.37176013483352A353.5533905932738,353.5533905932738 0 0,0 341.1350233851738,92.88108429598007Z" style="stroke: rgb(255, 255, 255); fill: rgb(108, 191, 105); fill-rule: evenodd;"></path><text transform="rotate(18.000000000000025)" x="353.5533905932738" dx="6" dy=".35em" style="font-size: 11px; font-family: Arial, Helvetica;">Donkey</text><title>Donkey: 1</title></g><g><path d="M467.5081213427073,177.3024435212681A500,500 0 0,1 448.21346864785176,221.59577279962085L316.93478310004,156.6918736288854A353.5533905932738,353.5533905932738 0 0,0 330.57816286121164,125.37176013483352Z" style="stroke: rgb(255, 255, 255); fill: rgb(105, 191, 111); fill-rule: evenodd;"></path><text transform="rotate(23.538461538461565)" x="353.5533905932738" dx="6" dy=".35em" style="font-size: 11px; font-family: Arial, Helvetica;">Dugong</text><title>Dugong: 1</title></g><g><path d="M448.21346864785176,221.59577279962085A500,500 0 0,1 424.73396756076045,263.8201220530665L300.33226866248083,186.54899731718595A353.5533905932738,353.5533905932738 0 0,0 316.93478310004,156.6918736288854Z" style="stroke: rgb(255, 255, 255); fill: rgb(105, 191, 120); fill-rule: evenodd;"></path><text transform="rotate(29.07692307692311)" x="353.5533905932738" dx="6" dy=".35em" style="font-size: 11px; font-family: Arial, Helvetica;">Eastern grey kangaroo</text><title>Eastern grey kangaroo: 1</title></g><g><path d="M424.73396756076045,263.8201220530665A500,500 0 0,1 397.28883985687713,303.58125390935567L280.92563275253417,214.66436328042047A353.5533905932738,353.5533905932738 0 0,0 300.33226866248083,186.54899731718595Z" style="stroke: rgb(255, 255, 255); fill: rgb(191, 141, 105); fill-rule: evenodd;"></path><text transform="rotate(34.615384615384635)" x="353.5533905932738" dx="6" dy=".35em" style="font-size: 11px; font-family: Arial, Helvetica;">European rabbit</text><title>European rabbit: 1</title></g><g><path d="M397.28883985687713,303.58125390935567A500,500 0 0,1 366.13433329888676,340.5079293933985L258.8960699008584,240.77546592186224A353.5533905932738,353.5533905932738 0 0,0 280.92563275253417,214.66436328042047Z" style="stroke: rgb(255, 255, 255); fill: rgb(105, 191, 129); fill-rule: evenodd;"></path><text transform="rotate(40.15384615384617)" x="353.5533905932738" dx="6" dy=".35em" style="font-size: 11px; font-family: Arial, Helvetica;">European wasp</text><title>European wasp: 1</title></g><g><path d="M366.13433329888676,340.5079293933985A500,500 0 0,1 331.5613291203977,374.25537408555044L234.44926420025794,264.6385129114008A353.5533905932738,353.5533905932738 0 0,0 258.8960699008584,240.77546592186224Z" style="stroke: rgb(255, 255, 255); fill: rgb(105, 191, 138); fill-rule: evenodd;"></path><text transform="rotate(45.69230769230769)" x="353.5533905932738" dx="6" dy=".35em" style="font-size: 11px; font-family: Arial, Helvetica;">Firefly</text><title>Firefly: 1</title></g><g><path d="M331.5613291203977,374.25537408555044A500,500 0 0,1 293.89262614623675,404.50849718747355L207.81346888872685,286.03070140884205A353.5533905932738,353.5533905932738 0 0,0 234.44926420025794,264.6385129114008Z" style="stroke: rgb(255, 255, 255); fill: rgb(188, 191, 105); fill-rule: evenodd;"></path><text transform="rotate(51.23076923076922)" x="353.5533905932738" dx="6" dy=".35em" style="font-size: 11px; font-family: Arial, Helvetica;">Giant Panda</text><title>Giant Panda: 1</title></g><g><path d="M293.89262614623675,404.50849718747355A500,500 0 0,1 253.4799269067955,430.9848334400245L179.2373752104655,304.75229831399605A353.5533905932738,353.5533905932738 0 0,0 207.81346888872685,286.03070140884205Z" style="stroke: rgb(255, 255, 255); fill: rgb(105, 191, 146); fill-rule: evenodd;"></path><text transform="rotate(56.769230769230745)" x="353.5533905932738" dx="6" dy=".35em" style="font-size: 11px; font-family: Arial, Helvetica;">Giraffe</text><title>Giraffe: 1</title></g><g><path d="M253.4799269067955,430.9848334400245A500,500 0 0,1 210.70055388626494,453.4371804252725L148.98779045273952,320.62850512081826A353.5533905932738,353.5533905932738 0 0,0 179.2373752104655,304.75229831399605Z" style="stroke: rgb(255, 255, 255); fill: rgb(191, 132, 105); fill-rule: evenodd;"></path><text transform="rotate(62.30769230769228)" x="353.5533905932738" dx="6" dy=".35em" style="font-size: 11px; font-family: Arial, Helvetica;">Goat</text><title>Goat: 1</title></g><g><path d="M210.70055388626494,453.4371804252725A500,500 0 0,1 165.9539265642647,471.6559066288714L117.3471468381259,333.511089963964A353.5533905932738,353.5533905932738 0 0,0 148.98779045273952,320.62850512081826Z" style="stroke: rgb(255, 255, 255); fill: rgb(105, 191, 155); fill-rule: evenodd;"></path><text transform="rotate(67.84615384615381)" x="353.5533905932738" dx="6" dy=".35em" style="font-size: 11px; font-family: Arial, Helvetica;">Golden Stag Beetle</text><title>Golden Stag Beetle: 1</title></g><g><path d="M165.9539265642647,471.6559066288714A500,500 0 0,1 119.65783214377946,485.4709087130259L84.61086453094809,343.279771619776A353.5533905932738,353.5533905932738 0 0,0 117.3471468381259,333.511089963964Z" style="stroke: rgb(255, 255, 255); fill: rgb(105, 191, 164); fill-rule: evenodd;"></path><text transform="rotate(73.38461538461533)" x="353.5533905932738" dx="6" dy=".35em" style="font-size: 11px; font-family: Arial, Helvetica;">Great White Pelican</text><title>Great White Pelican: 1</title></g><g><path d="M119.65783214377946,485.4709087130259A500,500 0 0,1 72.24452478461133,494.75319972552546L51.084593378798274,349.84334253966136A353.5533905932738,353.5533905932738 0 0,0 84.61086453094809,343.279771619776Z" style="stroke: rgb(255, 255, 255); fill: rgb(105, 191, 173); fill-rule: evenodd;"></path><text transform="rotate(78.92307692307686)" x="353.5533905932738" dx="6" dy=".35em" style="font-size: 11px; font-family: Arial, Helvetica;">Guinea pig</text><title>Guinea pig: 1</title></g><g><path d="M72.24452478461133,494.75319972552546A500,500 0 0,1 24.156689762754297,499.4161134161633L17.081359142263214,353.14052043039896A353.5533905932738,353.5533905932738 0 0,0 51.084593378798274,349.84334253966136Z" style="stroke: rgb(255, 255, 255); fill: rgb(105, 191, 182); fill-rule: evenodd;"></path><text transform="rotate(84.4615384615384)" x="353.5533905932738" dx="6" dy=".35em" style="font-size: 11px; font-family: Arial, Helvetica;">Hairy Hermit Crab</text><title>Hairy Hermit Crab: 1</title></g><g><path d="M24.156689762754297,499.4161134161633A500,500 0 0,1 -24.156689762752684,499.41611341616334L-17.081359142262073,353.140520430399A353.5533905932738,353.5533905932738 0 0,0 17.081359142263214,353.14052043039896Z" style="stroke: rgb(255, 255, 255); fill: rgb(105, 191, 191); fill-rule: evenodd;"></path><text transform="rotate(89.99999999999991)" x="353.5533905932738" dx="6" dy=".35em" style="font-size: 11px; font-family: Arial, Helvetica;">Harbor seal</text><title>Harbor seal: 1</title></g><g><path d="M-24.156689762752684,499.41611341616334A500,500 0 0,1 -72.24452478460972,494.7531997255257L-51.084593378797145,349.84334253966153A353.5533905932738,353.5533905932738 0 0,0 -17.081359142262073,353.140520430399Z" style="stroke: rgb(255, 255, 255); fill: rgb(105, 182, 191); fill-rule: evenodd;"></path><text transform="rotate(95.53846153846146)" x="353.5533905932738" dx="6" dy=".35em" style="font-size: 11px; font-family: Arial, Helvetica;">Hedgehog</text><title>Hedgehog: 1</title></g><g><path d="M-72.24452478460972,494.7531997255257A500,500 0 0,1 -119.65783214377788,485.4709087130263L-84.61086453094698,343.2797716197763A353.5533905932738,353.5533905932738 0 0,0 -51.084593378797145,349.84334253966153Z" style="stroke: rgb(255, 255, 255); fill: rgb(105, 173, 191); fill-rule: evenodd;"></path><text transform="rotate(101.07692307692298)" x="353.5533905932738" dx="6" dy=".35em" style="font-size: 11px; font-family: Arial, Helvetica;">House Sparrow</text><title>House Sparrow: 1</title></g><g><path d="M-119.65783214377788,485.4709087130263A500,500 0 0,1 -165.95392656426316,471.6559066288719L-117.34714683812481,333.5110899639644A353.5533905932738,353.5533905932738 0 0,0 -84.61086453094698,343.2797716197763Z" style="stroke: rgb(255, 255, 255); fill: rgb(143, 191, 105); fill-rule: evenodd;"></path><text transform="rotate(106.61538461538451)" x="353.5533905932738" dx="6" dy=".35em" style="font-size: 11px; font-family: Arial, Helvetica;">Killer whale</text><title>Killer whale: 1</title></g><g><path d="M-165.95392656426316,471.6559066288719A500,500 0 0,1 -210.70055388626346,453.4371804252732L-148.98779045273847,320.6285051208187A353.5533905932738,353.5533905932738 0 0,0 -117.34714683812481,333.5110899639644Z" style="stroke: rgb(255, 255, 255); fill: rgb(105, 164, 191); fill-rule: evenodd;"></path><text transform="rotate(112.15384615384603)" x="353.5533905932738" dx="6" dy=".35em" style="font-size: 11px; font-family: Arial, Helvetica;">Koala</text><title>Koala: 1</title></g><g><path d="M-210.70055388626346,453.4371804252732A500,500 0 0,1 -253.4799269067941,430.9848334400252L-179.23737521046453,304.75229831399656A353.5533905932738,353.5533905932738 0 0,0 -148.98779045273847,320.6285051208187Z" style="stroke: rgb(255, 255, 255); fill: rgb(105, 155, 191); fill-rule: evenodd;"></path><text transform="rotate(117.69230769230758)" x="353.5533905932738" dx="6" dy=".35em" style="font-size: 11px; font-family: Arial, Helvetica;">Leopard</text><title>Leopard: 1</title></g><g><path d="M-253.4799269067941,430.9848334400252A500,500 0 0,1 -293.89262614623544,404.5084971874745L-207.81346888872594,286.03070140884273A353.5533905932738,353.5533905932738 0 0,0 -179.23737521046453,304.75229831399656Z" style="stroke: rgb(255, 255, 255); fill: rgb(105, 155, 191); fill-rule: evenodd;"></path><text transform="rotate(123.2307692307691)" x="353.5533905932738" dx="6" dy=".35em" style="font-size: 11px; font-family: Arial, Helvetica;">Lion</text><title>Lion: 1</title></g><g><path d="M-293.89262614623544,404.5084971874745A500,500 0 0,1 -331.56132912039646,374.2553740855515L-234.44926420025706,264.6385129114016A353.5533905932738,353.5533905932738 0 0,0 -207.81346888872594,286.03070140884273Z" style="stroke: rgb(255, 255, 255); fill: rgb(105, 146, 191); fill-rule: evenodd;"></path><text transform="rotate(128.76923076923063)" x="353.5533905932738" dx="6" dy=".35em" style="font-size: 11px; font-family: Arial, Helvetica;">Little Owl</text><title>Little Owl: 1</title></g><g><path d="M-331.56132912039646,374.2553740855515A500,500 0 0,1 -366.1343332988857,340.5079293933997L-258.89606990085764,240.77546592186306A353.5533905932738,353.5533905932738 0 0,0 -234.44926420025706,264.6385129114016Z" style="stroke: rgb(255, 255, 255); fill: rgb(105, 138, 191); fill-rule: evenodd;"></path><text transform="rotate(134.30769230769215)" x="353.5533905932738" dx="6" dy=".35em" style="font-size: 11px; font-family: Arial, Helvetica;">Llama</text><title>Llama: 1</title></g><g><path d="M-366.1343332988857,340.5079293933997A500,500 0 0,1 -397.2888398568763,303.58125390935675L-280.92563275253355,214.66436328042127A353.5533905932738,353.5533905932738 0 0,0 -258.89606990085764,240.77546592186306Z" style="stroke: rgb(255, 255, 255); fill: rgb(105, 129, 191); fill-rule: evenodd;"></path><text transform="rotate(139.8461538461537)" x="353.5533905932738" dx="6" dy=".35em" style="font-size: 11px; font-family: Arial, Helvetica;">Lophius piscatorius</text><title>Lophius piscatorius: 1</title></g><g><path d="M-397.2888398568763,303.58125390935675A500,500 0 0,1 -424.7339675607598,263.82012205306745L-300.3322686624804,186.54899731718663A353.5533905932738,353.5533905932738 0 0,0 -280.92563275253355,214.66436328042127Z" style="stroke: rgb(255, 255, 255); fill: rgb(105, 120, 191); fill-rule: evenodd;"></path><text transform="rotate(145.38461538461522)" x="353.5533905932738" dx="6" dy=".35em" style="font-size: 11px; font-family: Arial, Helvetica;">Mediterranean mussel</text><title>Mediterranean mussel: 1</title></g><g><path d="M-424.7339675607598,263.82012205306745A500,500 0 0,1 -448.2134686478514,221.5957727996217L-316.93478310003974,156.69187362888601A353.5533905932738,353.5533905932738 0 0,0 -300.3322686624804,186.54899731718663Z" style="stroke: rgb(255, 255, 255); fill: rgb(105, 111, 191); fill-rule: evenodd;"></path><text transform="rotate(150.9230769230768)" x="353.5533905932738" dx="6" dy=".35em" style="font-size: 11px; font-family: Arial, Helvetica;">Mink</text><title>Mink: 1</title></g><g><path d="M-448.2134686478514,221.5957727996217A500,500 0 0,1 -467.508121342707,177.30244352126874L-330.57816286121147,125.37176013483399A353.5533905932738,353.5533905932738 0 0,0 -316.93478310003974,156.69187362888601Z" style="stroke: rgb(255, 255, 255); fill: rgb(108, 105, 191); fill-rule: evenodd;"></path><text transform="rotate(156.46153846153834)" x="353.5533905932738" dx="6" dy=".35em" style="font-size: 11px; font-family: Arial, Helvetica;">Narwhal</text><title>Narwhal: 1</title></g><g><path d="M-467.508121342707,177.30244352126874A500,500 0 0,1 -482.4377766717755,131.35368909929431L-341.13502338517367,92.8810842959805A353.5533905932738,353.5533905932738 0 0,0 -330.57816286121147,125.37176013483399Z" style="stroke: rgb(255, 255, 255); fill: rgb(117, 105, 191); fill-rule: evenodd;"></path><text transform="rotate(161.99999999999991)" x="353.5533905932738" dx="6" dy=".35em" style="font-size: 11px; font-family: Arial, Helvetica;">Nine-banded armadillo</text><title>Nine-banded armadillo: 1</title></g><g><path d="M-482.4377766717755,131.35368909929431A500,500 0 0,1 -492.8630404658253,84.17852067352001L-348.50679810960486,59.523202798497984A353.5533905932738,353.5533905932738 0 0,0 -341.13502338517367,92.8810842959805Z" style="stroke: rgb(255, 255, 255); fill: rgb(126, 105, 191); fill-rule: evenodd;"></path><text transform="rotate(167.53846153846143)" x="353.5533905932738" dx="6" dy=".35em" style="font-size: 11px; font-family: Arial, Helvetica;">Ostrich</text><title>Ostrich: 1</title></g><g><path d="M-492.8630404658253,84.17852067352001A500,500 0 0,1 -498.6865748457455,36.21740008088178L-352.6246587601195,25.609569194137727A353.5533905932738,353.5533905932738 0 0,0 -348.50679810960486,59.523202798497984Z" style="stroke: rgb(255, 255, 255); fill: rgb(135, 105, 191); fill-rule: evenodd;"></path><text transform="rotate(173.076923076923)" x="353.5533905932738" dx="6" dy=".35em" style="font-size: 11px; font-family: Arial, Helvetica;">Pacific Gull</text><title>Pacific Gull: 1</title></g><g><path d="M-498.6865748457455,36.21740008088178A500,500 0 0,1 -499.85400704009646,-12.081872618065672L-353.4501579813205,-8.543174057666304A353.5533905932738,353.5533905932738 0 0,0 -352.6246587601195,25.609569194137727Z" style="stroke: rgb(255, 255, 255); fill: rgb(143, 105, 191); fill-rule: evenodd;"></path><text transform="rotate(178.61538461538456)" x="353.5533905932738" dx="6" dy=".35em" style="font-size: 11px; font-family: Arial, Helvetica;">Penguin</text><title>Penguin: 1</title></g><g><path d="M-499.85400704009646,-12.081872618065672A500,500 0 0,1 -496.35443704902707,-60.26834012766119L-350.97558830939835,-42.61615199512654A353.5533905932738,353.5533905932738 0 0,0 -353.4501579813205,-8.543174057666304Z" style="stroke: rgb(255, 255, 255); fill: rgb(152, 105, 191); fill-rule: evenodd;"></path><text transform="rotate(184.1538461538461)" x="353.5533905932738" dx="6" dy=".35em" style="font-size: 11px; font-family: Arial, Helvetica;">Platypus</text><title>Platypus: 1</title></g><g><path d="M-496.35443704902707,-60.26834012766119A500,500 0 0,1 -488.22053941463605,-107.89209838390288L-345.22405413464327,-76.29123440370387A353.5533905932738,353.5533905932738 0 0,0 -350.97558830939835,-42.61615199512654Z" style="stroke: rgb(255, 255, 255); fill: rgb(161, 105, 191); fill-rule: evenodd;"></path><text transform="rotate(189.69230769230765)" x="353.5533905932738" dx="6" dy=".35em" style="font-size: 11px; font-family: Arial, Helvetica;">Pterodactylus</text><title>Pterodactylus: 1</title></g><g><path d="M-488.22053941463605,-107.89209838390288A500,500 0 0,1 -475.5282581475768,-154.50849718747364L-336.2492559819787,-109.25400611220522A353.5533905932738,353.5533905932738 0 0,0 -345.22405413464327,-76.29123440370387Z" style="stroke: rgb(255, 255, 255); fill: rgb(170, 105, 191); fill-rule: evenodd;"></path><text transform="rotate(195.23076923076923)" x="353.5533905932738" dx="6" dy=".35em" style="font-size: 11px; font-family: Arial, Helvetica;">Reindeer</text><title>Reindeer: 1</title></g><g><path d="M-475.5282581475768,-154.50849718747364A500,500 0 0,1 -458.3960976582911,-199.68229178284784L-324.13498912362854,-141.19670260252255A353.5533905932738,353.5533905932738 0 0,0 -336.2492559819787,-109.25400611220522Z" style="stroke: rgb(255, 255, 255); fill: rgb(179, 105, 191); fill-rule: evenodd;"></path><text transform="rotate(200.76923076923077)" x="353.5533905932738" dx="6" dy=".35em" style="font-size: 11px; font-family: Arial, Helvetica;">Ringlet Butterfly</text><title>Ringlet Butterfly: 1</title></g><g><path d="M-458.3960976582911,-199.68229178284784A500,500 0 0,1 -436.9840163132589,-242.9917066213032L-308.9943612052383,-171.8210835240156A353.5533905932738,353.5533905932738 0 0,0 -324.13498912362854,-141.19670260252255Z" style="stroke: rgb(255, 255, 255); fill: rgb(188, 105, 191); fill-rule: evenodd;"></path><text transform="rotate(206.30769230769232)" x="353.5533905932738" dx="6" dy=".35em" style="font-size: 11px; font-family: Arial, Helvetica;">Roborovski hamster</text><title>Roborovski hamster: 1</title></g><g><path d="M-436.9840163132589,-242.9917066213032A500,500 0 0,1 -411.491932946828,-284.03237336557817L-290.96873619026223,-200.84121728330967A353.5533905932738,353.5533905932738 0 0,0 -308.9943612052383,-171.8210835240156Z" style="stroke: rgb(255, 255, 255); fill: rgb(191, 105, 185); fill-rule: evenodd;"></path><text transform="rotate(211.8461538461539)" x="353.5533905932738" dx="6" dy=".35em" style="font-size: 11px; font-family: Arial, Helvetica;">Scorpionfish</text><title>Scorpionfish: 1</title></g><g><path d="M-411.491932946828,-284.03237336557817A500,500 0 0,1 -382.15786027292387,-322.4211063680857L-270.2264144827256,-227.98615071054255A353.5533905932738,353.5533905932738 0 0,0 -290.96873619026223,-200.84121728330967Z" style="stroke: rgb(255, 255, 255); fill: rgb(191, 105, 176); fill-rule: evenodd;"></path><text transform="rotate(217.38461538461544)" x="353.5533905932738" dx="6" dy=".35em" style="font-size: 11px; font-family: Arial, Helvetica;">Spotted Hyena</text><title>Spotted Hyena: 1</title></g><g><path d="M-382.15786027292387,-322.4211063680857A500,500 0 0,1 -349.255682624468,-357.799480372061L-246.961061551698,-253.00243887610736A353.5533905932738,353.5533905932738 0 0,0 -270.2264144827256,-227.98615071054255Z" style="stroke: rgb(255, 255, 255); fill: rgb(191, 105, 167); fill-rule: evenodd;"></path><text transform="rotate(222.92307692307702)" x="353.5533905932738" dx="6" dy=".35em" style="font-size: 11px; font-family: Arial, Helvetica;">Tarantula</text><title>Tarantula: 1</title></g><g><path d="M-349.255682624468,-357.799480372061A500,500 0 0,1 -313.0925987691562,-389.83717703161165L-221.3898997289893,-275.6565114376732A353.5533905932738,353.5533905932738 0 0,0 -246.961061551698,-253.00243887610736Z" style="stroke: rgb(255, 255, 255); fill: rgb(105, 155, 191); fill-rule: evenodd;"></path><text transform="rotate(228.46153846153854)" x="353.5533905932738" dx="6" dy=".35em" style="font-size: 11px; font-family: Arial, Helvetica;">Tiger</text><title>Tiger: 1</title></g><g><path d="M-313.0925987691562,-389.83717703161165A500,500 0 0,1 -274.00625367733426,-418.23506900511387L-193.75168006276445,-295.7368534235397A353.5533905932738,353.5533905932738 0 0,0 -221.3898997289893,-275.6565114376732Z" style="stroke: rgb(255, 255, 255); fill: rgb(191, 105, 158); fill-rule: evenodd;"></path><text transform="rotate(234.00000000000009)" x="353.5533905932738" dx="6" dy=".35em" style="font-size: 11px; font-family: Arial, Helvetica;">Tortoise</text><title>Tortoise: 1</title></g><g><path d="M-274.00625367733426,-418.23506900511387A500,500 0 0,1 -232.3615860218834,-442.7280128266054L-164.30445316333504,-313.05598009093745A353.5533905932738,353.5533905932738 0 0,0 -193.75168006276445,-295.7368534235397Z" style="stroke: rgb(255, 255, 255); fill: rgb(191, 105, 149); fill-rule: evenodd;"></path><text transform="rotate(239.53846153846166)" x="353.5533905932738" dx="6" dy=".35em" style="font-size: 11px; font-family: Arial, Helvetica;">Walrus</text><title>Walrus: 1</title></g><g><path d="M-232.3615860218834,-442.7280128266054A500,500 0 0,1 -188.54742084415915,-463.08732447888866L-133.32315985413874,-327.45218742055727A353.5533905932738,353.5533905932738 0 0,0 -164.30445316333504,-313.05598009093745Z" style="stroke: rgb(255, 255, 255); fill: rgb(191, 105, 141); fill-rule: evenodd;"></path><text transform="rotate(245.0769230769232)" x="353.5533905932738" dx="6" dy=".35em" style="font-size: 11px; font-family: Arial, Helvetica;">Weaver ant</text><title>Weaver ant: 1</title></g><g><path d="M-188.54742084415915,-463.08732447888866A500,500 0 0,1 -142.97283919934338,-479.1229145545834L-101.09706412334955,-338.7910619034088A353.5533905932738,353.5533905932738 0 0,0 -133.32315985413874,-327.45218742055727Z" style="stroke: rgb(255, 255, 255); fill: rgb(191, 105, 132); fill-rule: evenodd;"></path><text transform="rotate(250.61538461538476)" x="353.5533905932738" dx="6" dy=".35em" style="font-size: 11px; font-family: Arial, Helvetica;">Woolly mammoth</text><title>Woolly mammoth: 1</title></g><g><path d="M-142.97283919934338,-479.1229145545834A500,500 0 0,1 -96.0633586768528,-490.685063069707L-67.92705234395818,-346.9667355235386A353.5533905932738,353.5533905932738 0 0,0 -101.09706412334955,-338.7910619034088Z" style="stroke: rgb(255, 255, 255); fill: rgb(108, 191, 105); fill-rule: evenodd;"></path><text transform="rotate(256.1538461538463)" x="353.5533905932738" dx="6" dy=".35em" style="font-size: 11px; font-family: Arial, Helvetica;">Zebra</text><title>Zebra: 1</title></g><g><path d="M-96.0633586768528,-490.685063069707A500,500 0 0,1 -48.256960457256014,-497.6658173588245L-34.12282397877681,-351.90287421917066A353.5533905932738,353.5533905932738 0 0,0 -67.92705234395818,-346.9667355235386Z" style="stroke: rgb(255, 255, 255); fill: rgb(191, 105, 123); fill-rule: evenodd;"></path><text transform="rotate(261.6923076923079)" x="353.5533905932738" dx="6" dy=".35em" style="font-size: 11px; font-family: Arial, Helvetica;">giant forest scorpions</text><title>giant forest scorpions: 1</title></g><g><path d="M-48.256960457256014,-497.6658173588245A500,500 0 0,1 1.684508329464199e-12,-500L1.191127262729358e-12,-353.5533905932738A353.5533905932738,353.5533905932738 0 0,0 -34.12282397877681,-351.90287421917066Z" style="stroke: rgb(255, 255, 255); fill: rgb(191, 105, 114); fill-rule: evenodd;"></path><text transform="rotate(267.23076923076945)" x="353.5533905932738" dx="6" dy=".35em" style="font-size: 11px; font-family: Arial, Helvetica;">russet mite</text><title>russet mite: 1</title></g></g></svg>